<?xml version="1.0" standalone="no"?>
<!DOCTYPE svg PUBLIC "-//W3C//DTD SVG 20010904//EN"
 "http://www.w3.org/TR/2001/REC-SVG-20010904/DTD/svg10.dtd">
<svg version="1.0" xmlns="http://www.w3.org/2000/svg"
 width="300.000000pt" height="426.000000pt" viewBox="0 0 300.000000 426.000000"
 preserveAspectRatio="xMidYMid meet">
<metadata>
Created by potrace 1.10, written by Peter Selinger 2001-2011
</metadata>
<g transform="translate(0.000000,426.000000) scale(0.100000,-0.100000)"
fill="#ffff00" stroke="none">
<path d="M1482 3807 c-5 -7 -14 -59 -20 -117 -17 -157 -19 -169 -32 -245 -7
-38 -15 -72 -19 -75 -4 -3 -13 -41 -20 -85 -7 -44 -18 -84 -24 -90 -14 -11
-12 -97 2 -123 5 -10 11 -37 15 -62 l6 -45 -16 49 c-8 26 -17 47 -19 45 -7 -8
31 -153 42 -156 13 -5 10 35 -13 161 -17 96 -16 144 1 61 l13 -60 2 85 c5 174
23 260 32 150 2 -19 16 87 32 237 17 150 31 271 32 270 1 -1 7 -47 13 -102 6
-55 15 -120 20 -145 8 -44 9 -43 11 30 2 41 5 62 7 45 17 -141 46 -331 58
-380 7 -33 17 -96 22 -140 l8 -80 5 75 5 75 10 -85 c7 -65 10 -78 15 -55 l7
30 5 -30 c3 -18 6 -2 7 40 2 49 5 64 11 50 7 -17 9 -14 10 15 2 19 6 49 10 65
6 19 8 -15 6 -90 -3 -150 9 -172 47 -87 14 31 29 70 32 85 7 26 8 26 21 10 12
-16 12 -16 7 6 -4 17 -3 22 6 17 6 -4 11 -4 10 1 -1 4 3 21 9 36 7 16 12 34
12 40 0 7 4 6 10 -3 8 -12 10 -11 10 8 0 12 4 22 10 22 5 0 6 7 3 17 -4 10 -2
14 4 10 6 -4 16 17 25 48 8 30 14 55 12 55 -2 0 -13 -17 -24 -37 -11 -21 -34
-62 -51 -92 -16 -29 -28 -60 -25 -67 3 -8 2 -13 -2 -11 -14 4 -50 -38 -57 -66
-12 -46 -35 -14 -35 47 0 30 -6 61 -14 72 -14 18 -15 17 -29 -16 -8 -19 -17
-44 -21 -55 -7 -19 -8 -19 -25 3 -9 13 -22 49 -29 80 -26 129 -41 212 -53 302
-8 64 -18 102 -31 116 -10 11 -18 31 -18 45 0 77 -25 126 -48 96z m277 -771
c-15 -41 -34 -34 -23 9 5 20 9 24 16 13 7 -9 8 -6 4 11 -3 17 -2 21 6 13 7 -7
6 -21 -3 -46z"/>
<path d="M1491 3655 c0 -11 -12 -141 -26 -289 -14 -149 -25 -279 -24 -290 1
-46 20 30 30 119 5 49 11 101 13 115 2 14 5 50 6 80 2 52 3 53 10 20 5 -19 13
-61 19 -94 20 -113 28 -64 14 90 -7 70 -8 75 -14 39 -5 -33 -7 -27 -9 35 -2
81 -16 208 -19 175z"/>
<path d="M1552 3340 c0 -127 12 -241 28 -268 6 -9 17 -60 24 -112 l14 -95 0
80 c-1 102 -14 253 -16 183 -3 -68 -22 -60 -23 10 0 31 -6 116 -14 187 l-13
130 0 -115z"/>
<path d="M1193 3383 c-4 -10 -8 -66 -8 -125 0 -58 -4 -104 -8 -101 -11 7 -2
-85 12 -120 6 -16 11 -36 10 -45 -1 -9 -5 0 -11 20 -5 21 -15 35 -21 33 -7 -3
-19 10 -27 28 -8 17 -19 31 -25 30 -14 -3 -25 -63 -12 -63 6 0 8 -2 5 -5 -9
-10 11 -92 30 -124 15 -25 21 -29 26 -16 3 9 2 13 -4 10 -6 -3 -11 0 -11 7 -3
29 -8 56 -24 117 -8 35 -14 66 -12 68 2 2 19 -42 38 -97 23 -69 36 -94 41 -82
10 26 9 39 -2 22 -8 -13 -10 -13 -10 1 0 9 7 22 15 29 12 10 15 10 15 0 0 -8
2 -11 4 -9 2 2 -2 38 -9 79 -16 85 -18 115 -6 85 7 -18 5 92 -3 168 -3 33 10
23 17 -13 3 -14 4 7 1 45 l-4 70 15 -45 c8 -25 28 -94 45 -155 17 -60 35 -119
41 -129 6 -10 13 -59 15 -107 2 -54 9 -100 19 -119 18 -35 21 -36 34 -12 10
20 -10 124 -28 146 -7 8 -11 42 -9 77 1 35 -2 75 -6 88 -6 16 -5 21 3 17 6 -4
11 -2 11 4 0 24 -25 2 -30 -26 -4 -23 -8 -14 -20 46 -7 41 -16 77 -20 80 -3 3
-16 34 -27 70 -22 66 -46 88 -60 53z m144 -305 c-3 -8 -6 -5 -6 6 -1 11 2 17
5 13 3 -3 4 -12 1 -19z m-153 -93 c3 -8 1 -15 -4 -15 -6 0 -10 7 -10 15 0 8 2
15 4 15 2 0 6 -7 10 -15z m181 -110 c4 -33 5 -58 2 -55 -6 6 -37 136 -37 153
1 32 28 -45 35 -98z"/>
<path d="M1949 3358 c-1 -7 -3 -22 -4 -33 -2 -11 -6 -42 -9 -70 -4 -27 -9 -57
-12 -67 -3 -9 0 -19 6 -23 5 -3 10 -14 10 -23 0 -15 -2 -15 -11 -2 -8 12 -9
10 -4 -7 5 -18 -6 -108 -30 -243 -3 -14 4 0 15 30 13 37 17 43 13 20 -4 -19
-7 -57 -8 -85 -1 -27 -5 -65 -9 -82 -5 -21 -4 -33 2 -33 15 0 43 101 37 131
-7 36 -8 149 -1 189 14 84 16 111 7 106 -5 -3 -11 1 -14 9 -4 8 -1 12 6 9 8
-3 13 16 15 63 1 38 5 80 8 96 3 16 1 27 -5 27 -6 0 -12 -6 -12 -12z"/>
<path d="M899 3260 c5 -14 19 -45 30 -70 17 -36 20 -39 16 -15 -9 47 12 9 26
-47 6 -27 15 -46 19 -43 5 3 11 -8 15 -25 4 -17 10 -28 14 -25 5 2 19 -22 32
-55 13 -32 27 -56 33 -53 5 4 7 -1 3 -10 -3 -10 -2 -17 3 -17 6 0 10 -7 10
-15 0 -8 4 -15 9 -15 5 0 7 -8 4 -18 -2 -10 3 -24 11 -31 14 -11 16 -11 16 3
0 11 -5 14 -12 10 -8 -5 -9 -2 -5 10 10 25 -23 135 -38 130 -7 -3 -15 6 -19
22 -4 15 -16 40 -27 55 -10 15 -33 55 -50 89 -16 33 -37 69 -45 78 -8 9 -24
28 -35 42 l-19 25 9 -25z"/>
<path d="M876 3240 c4 -19 6 -48 6 -64 0 -16 4 -39 10 -50 23 -42 46 -346 27
-346 -5 0 -9 5 -9 12 0 6 -3 9 -6 6 -3 -3 8 -33 25 -67 34 -66 42 -97 11 -41
-23 42 -27 32 -5 -11 9 -16 20 -27 24 -24 5 3 12 -2 15 -11 3 -8 10 -12 16 -9
5 3 10 2 10 -4 0 -5 5 -22 11 -38 l12 -28 8 35 c4 20 3 53 -3 78 -6 23 -8 45
-5 49 4 3 2 14 -4 24 -6 13 -6 24 2 37 9 14 5 33 -21 95 -18 43 -34 76 -36 74
-5 -5 25 -106 42 -139 18 -35 12 -35 -21 -2 -18 18 -24 32 -20 47 5 17 4 19
-4 7 -6 -9 -11 -10 -11 -3 0 6 -3 20 -6 30 -5 15 -4 15 5 3 13 -19 14 -14 1
30 -6 19 -13 61 -15 93 -3 31 -12 73 -20 93 -19 45 -19 57 0 24 19 -33 19 -19
0 27 -8 19 -15 43 -15 52 0 10 -7 26 -15 37 -15 18 -16 17 -9 -16z m74 -404
c0 -7 7 -21 15 -32 15 -19 15 -19 10 1 -3 11 2 4 11 -15 9 -19 17 -53 19 -76
1 -22 8 -50 14 -62 17 -33 13 -40 -9 -12 -13 17 -20 20 -20 10 -1 -8 -12 14
-25 50 -27 72 -29 109 -2 42 18 -46 28 -55 20 -19 -4 18 -3 19 7 7 10 -13 11
-13 7 0 -2 8 -9 14 -15 13 -6 -1 -17 17 -25 40 -8 23 -18 51 -23 61 -5 14 -4
17 4 12 7 -4 12 -13 12 -20z"/>
<path d="M1235 3174 c2 -50 6 -107 9 -125 l6 -34 -15 30 -15 30 4 -30 c19
-116 29 -162 37 -175 13 -22 12 17 -3 79 -9 40 -9 54 0 63 9 9 12 7 12 -11 0
-12 4 -19 10 -16 6 4 10 -8 10 -27 0 -19 7 -43 15 -54 20 -27 19 -19 -20 150
-52 222 -52 223 -50 120z"/>
<path d="M1413 3092 c-2 -83 1 -153 7 -162 6 -10 10 29 9 121 0 190 -13 222
-16 41z"/>
<path d="M1895 3198 c-48 -135 -75 -196 -70 -165 9 60 -3 42 -16 -23 -6 -33
-15 -63 -19 -65 -4 -2 -3 16 1 42 15 79 4 58 -28 -55 -25 -86 -32 -100 -34
-72 -1 23 -4 13 -9 -30 -3 -36 -5 -66 -4 -68 3 -5 43 84 58 128 14 42 48 100
59 100 4 0 7 -10 7 -22 0 -12 2 -19 5 -16 6 6 63 258 58 258 -2 0 -6 -6 -8
-12z"/>
<path d="M937 3116 c-3 -8 -1 -16 4 -18 5 -2 12 -21 14 -43 4 -43 40 -144 57
-160 8 -7 9 -4 4 9 -5 15 -4 17 7 8 14 -12 48 -77 93 -180 15 -34 28 -61 30
-59 2 2 -2 29 -8 60 -8 38 -15 52 -21 44 -6 -8 -7 -4 -4 11 3 12 1 20 -3 17
-5 -3 -11 8 -15 25 -4 17 -10 28 -15 25 -5 -3 -11 8 -15 25 -4 16 -11 30 -17
30 -6 0 -7 7 -4 16 3 8 2 13 -2 10 -5 -3 -14 12 -21 32 -8 20 -19 44 -26 52
-6 8 -19 36 -29 63 -19 52 -21 54 -29 33z"/>
<path d="M2289 3107 c-31 -26 -91 -112 -83 -120 3 -3 -2 -19 -11 -36 -8 -17
-13 -31 -10 -31 2 0 14 19 26 42 14 27 24 37 29 29 5 -10 9 -8 13 4 4 9 3 13
-3 10 -6 -3 -10 -3 -10 2 0 15 19 38 31 38 7 0 14 7 16 15 4 13 3 13 -7 0 -10
-13 -11 -12 -6 3 3 10 6 21 6 23 0 3 5 2 12 -2 7 -4 8 -3 4 4 -4 7 -3 12 2 12
6 0 12 7 16 15 7 19 6 19 -25 -8z"/>
<path d="M1811 3104 c0 -11 3 -14 6 -6 3 7 2 16 -1 19 -3 4 -6 -2 -5 -13z"/>
<path d="M2283 3003 c-22 -60 -48 -126 -57 -148 -14 -34 -14 -37 -1 -21 22 29
19 20 -30 -89 -25 -55 -43 -106 -40 -113 3 -7 0 -10 -5 -7 -9 6 -14 -8 -11
-28 1 -5 -8 -24 -19 -43 -12 -18 -19 -38 -15 -44 3 -5 -2 -21 -11 -35 -9 -14
-14 -28 -11 -31 3 -3 8 4 12 15 3 12 10 19 15 16 4 -3 22 18 39 45 35 56 38
69 15 49 -14 -11 -14 -8 1 26 10 22 19 47 20 55 3 21 18 60 49 132 9 20 16 45
16 57 0 11 16 58 35 104 31 76 55 167 43 167 -2 0 -23 -48 -45 -107z m-143
-483 c-12 -23 -16 -24 -26 -8 -4 6 -3 8 3 5 6 -4 13 0 17 8 3 8 8 15 11 15 3
0 1 -9 -5 -20z"/>
<path d="M1876 3005 c-9 -30 -19 -81 -21 -112 -2 -32 -7 -83 -10 -114 -4 -32
-2 -60 3 -63 7 -4 55 334 48 341 -1 2 -10 -22 -20 -52z"/>
<path d="M1701 2975 c-2 -38 -6 -95 -11 -125 -7 -52 -7 -49 -10 45 l-4 100 -6
-80 -6 -80 -3 75 c-4 112 -18 132 -22 32 -2 -45 -2 -82 1 -82 3 0 16 -21 29
-46 23 -43 25 -45 33 -23 5 12 7 74 5 138 -2 86 -4 98 -6 46z"/>
<path d="M666 2960 c15 -22 30 -40 33 -40 4 0 15 -16 25 -35 10 -19 22 -32 26
-30 4 3 13 -9 20 -25 7 -17 15 -30 19 -30 4 0 15 -14 25 -30 9 -17 20 -28 24
-26 4 2 25 -27 47 -66 22 -38 41 -64 44 -57 2 7 12 -3 23 -22 11 -20 16 -25
13 -11 -10 36 0 26 44 -44 44 -71 66 -82 33 -17 -21 39 -82 104 -82 87 -1 -10
-59 96 -60 109 0 5 5 5 10 2 15 -9 12 1 -10 37 -22 36 -25 34 -10 -6 6 -16 6
-27 0 -31 -6 -4 -10 -3 -10 2 -1 4 -21 30 -45 57 -24 27 -42 54 -38 60 3 6 2
8 -2 3 -5 -4 -16 4 -24 17 -26 38 -114 136 -123 136 -4 0 4 -18 18 -40z m263
-325 c0 -5 -6 1 -14 15 -8 14 -14 30 -14 35 0 6 6 -1 14 -15 8 -14 14 -29 14
-35z"/>
<path d="M624 2974 c4 -9 15 -50 25 -89 33 -125 62 -200 92 -236 16 -19 26
-26 23 -16 -11 31 3 18 35 -35 l33 -53 -31 30 c-30 28 -29 24 30 -105 34 -74
70 -155 81 -180 11 -25 22 -40 25 -34 2 6 -21 67 -52 135 -30 68 -55 133 -54
144 2 17 -3 46 -17 108 -1 4 -2 13 -3 20 -1 8 -4 8 -10 -3 -6 -8 -7 -18 -4
-24 3 -5 1 -6 -5 -2 -9 5 -9 13 -2 27 9 16 4 30 -22 74 -18 30 -34 52 -36 50
-2 -2 8 -23 22 -48 30 -51 33 -65 9 -46 -17 13 -17 13 0 -7 21 -25 21 -31 2
-31 -18 0 -50 80 -40 98 5 7 4 10 -2 6 -6 -4 -14 0 -17 9 -3 8 -2 12 4 9 6 -3
7 1 4 9 -3 9 -11 13 -17 9 -6 -3 -7 -1 -3 5 4 6 -1 23 -10 38 -14 20 -15 30
-6 44 9 14 5 27 -18 64 -29 46 -48 61 -36 30z"/>
<path d="M2161 2953 c-12 -21 -33 -53 -47 -72 -20 -29 -24 -31 -24 -13 0 29
-19 37 -36 16 -14 -17 -15 -15 -10 31 l5 50 -14 -32 c-8 -17 -17 -45 -20 -61
-2 -16 -11 -44 -19 -63 -8 -19 -12 -52 -11 -73 2 -26 -3 -52 -16 -75 -20 -35
-20 -35 -13 -6 3 17 7 51 9 77 2 25 6 52 10 59 5 7 4 10 -2 6 -5 -3 -16 -24
-23 -47 -8 -24 -16 -36 -21 -29 -4 6 -10 -8 -14 -32 -6 -36 -9 -40 -16 -24 -5
13 -8 15 -8 5 -1 -8 -4 -26 -7 -40 l-6 -25 25 26 c23 25 24 26 35 8 7 -11 17
-19 22 -19 16 0 44 63 46 105 1 22 5 51 8 65 6 21 5 22 -3 5 -7 -15 -10 -16
-10 -4 -1 23 10 30 27 16 13 -10 15 -9 9 6 -3 9 -3 17 2 17 5 0 14 14 22 32 7
17 14 27 16 22 2 -6 -8 -36 -21 -66 -14 -31 -22 -58 -20 -61 3 -3 0 -15 -6
-27 -8 -15 -8 -20 -1 -16 16 10 13 -3 -8 -32 -10 -15 -23 -37 -30 -49 -23 -45
13 -13 49 42 35 54 100 116 100 94 0 -6 -14 -41 -31 -78 -17 -36 -34 -75 -39
-86 -19 -41 -41 -116 -36 -123 2 -4 -4 -27 -14 -50 -25 -56 -38 -122 -20 -105
7 6 14 22 15 35 2 13 21 61 44 106 43 86 48 107 11 46 -26 -41 -38 -40 -15 2
25 47 194 447 184 437 -5 -5 -25 -38 -44 -74 -27 -50 -35 -58 -35 -39 0 20 -7
14 -36 -35 -19 -33 -33 -50 -31 -37 7 31 2 28 -22 -14 -12 -20 -24 -34 -28
-31 -3 3 13 34 36 68 22 34 41 66 41 72 0 6 3 7 7 3 6 -6 73 99 73 117 0 18
-18 4 -39 -30z m-210 -266 c-10 -9 -11 -8 -5 6 3 10 9 15 12 12 3 -3 0 -11 -7
-18z"/>
<path d="M1996 2927 c-22 -28 -56 -125 -56 -155 0 -4 16 28 34 71 19 43 40 85
47 93 6 8 9 17 6 20 -3 3 -17 -10 -31 -29z"/>
<path d="M1208 2934 c-2 -10 2 -33 9 -51 16 -39 17 -65 3 -43 -15 23 -12 3 6
-38 9 -20 18 -32 21 -25 2 7 -1 21 -7 32 -6 13 -7 21 -1 21 12 0 6 46 -12 89
-12 28 -16 31 -19 15z"/>
<path d="M1176 2870 c3 -14 13 -37 21 -52 7 -16 11 -28 8 -28 -2 0 -14 18 -25
41 -26 49 -36 47 -15 -4 19 -45 19 -60 0 -27 -8 14 -14 22 -15 19 0 -6 30 -93
49 -143 18 -46 23 -24 6 30 -19 63 -19 67 5 59 20 -6 20 -6 -1 46 -25 64 -43
97 -33 59z"/>
<path d="M693 2865 c0 -8 4 -12 9 -9 5 3 6 10 3 15 -9 13 -12 11 -12 -6z"/>
<path d="M720 2855 c1 -21 117 -210 128 -208 6 2 37 -35 69 -82 57 -83 106
-130 63 -59 -12 19 -20 37 -17 40 3 3 12 -7 21 -23 17 -34 44 -59 53 -49 8 8
-68 87 -78 80 -11 -6 -122 154 -114 165 3 6 -3 8 -14 6 -16 -3 -30 12 -65 68
-25 40 -46 68 -46 62z m129 -190 c0 -5 -6 1 -14 15 -8 14 -14 30 -14 35 0 6 6
-1 14 -15 8 -14 14 -29 14 -35z"/>
<path d="M2426 2795 c-16 -14 -26 -25 -23 -25 3 0 -6 -12 -21 -27 -15 -15 -31
-26 -37 -25 -5 2 -7 0 -3 -4 11 -10 -30 -64 -49 -64 -10 0 -13 -6 -9 -16 3 -8
2 -13 -2 -10 -5 3 -24 -10 -44 -29 -20 -18 -39 -30 -42 -27 -3 3 -12 -11 -21
-31 -8 -19 -20 -39 -26 -42 -5 -4 -8 -13 -5 -21 3 -7 1 -16 -4 -19 -6 -4 -10
-11 -10 -17 0 -6 30 30 68 78 37 49 73 89 80 89 15 0 87 76 145 153 21 28 41
52 44 52 3 0 -7 -21 -22 -47 -15 -27 -28 -55 -30 -64 -2 -8 -24 -60 -50 -115
-26 -54 -48 -106 -49 -114 -1 -8 -9 -30 -19 -48 -10 -18 -15 -38 -11 -44 4 -6
3 -8 -3 -5 -12 8 -27 -20 -24 -42 1 -8 -2 -10 -10 -5 -8 4 -10 3 -5 -4 4 -6 0
-22 -9 -35 -8 -13 -13 -26 -10 -29 3 -3 -10 -33 -30 -68 -20 -35 -33 -65 -30
-68 2 -3 7 3 11 12 3 9 11 13 17 9 5 -3 7 -1 4 4 -6 9 14 24 35 27 3 1 10 5
15 10 5 5 3 6 -4 2 -8 -5 -11 -2 -7 7 4 12 34 21 34 10 0 -12 -34 -52 -40 -48
-5 3 -12 0 -16 -6 -4 -8 -3 -9 4 -5 17 10 15 -6 -4 -32 -9 -13 -13 -26 -10
-29 3 -3 1 -15 -5 -27 -9 -20 -9 -20 5 -3 8 10 17 17 20 15 3 -2 32 32 66 76
33 43 60 75 60 71 0 -4 -14 -26 -32 -49 -17 -22 9 0 57 49 49 50 82 79 74 65
-62 -99 -109 -180 -109 -186 0 -4 -10 -19 -22 -32 -13 -14 -17 -21 -9 -17 16
9 -38 -73 -79 -119 -14 -16 -19 -26 -12 -22 22 13 13 -8 -28 -62 -45 -59 -51
-76 -17 -45 34 31 55 39 30 11 -30 -32 -30 -48 0 -20 13 12 27 19 32 15 4 -5
5 -2 0 6 -4 8 -2 16 5 21 7 4 9 13 6 19 -4 6 -13 8 -19 4 -7 -4 1 10 16 30 16
21 26 44 23 52 -3 8 0 12 7 10 7 -3 20 12 31 33 10 20 32 64 48 97 16 33 36
67 43 75 7 8 29 45 49 82 29 55 32 67 20 72 -16 6 -104 -58 -104 -76 0 -5 -4
-7 -9 -3 -5 3 -26 -12 -46 -32 -34 -36 -35 -37 -25 -10 13 35 13 40 0 32 -5
-3 -10 -2 -10 4 0 6 -8 7 -17 4 -13 -5 -15 -3 -9 13 5 10 13 33 19 49 5 17 16
39 24 50 7 11 13 25 13 32 0 7 13 40 29 72 16 33 27 62 25 64 -3 2 16 44 40
93 93 186 105 262 32 199z m-258 -305 c-7 -10 -14 -17 -17 -15 -4 4 18 35 25
35 2 0 -1 -9 -8 -20z m69 -395 c-9 -7 -15 -15 -12 -19 3 -3 0 -2 -7 3 -14 13
9 44 25 34 6 -4 4 -11 -6 -18z m23 -159 c0 -2 -8 -10 -17 -17 -16 -13 -17 -12
-4 4 13 16 21 21 21 13z"/>
<path d="M1870 2738 c-8 -40 -15 -80 -16 -87 -2 -8 1 -21 5 -29 6 -10 10 -2
14 24 11 75 20 164 15 164 -3 0 -11 -33 -18 -72z"/>
<path d="M1154 2715 c4 -22 16 -49 27 -60 20 -19 20 -18 -1 35 -27 69 -35 76
-26 25z"/>
<path d="M2287 2559 c-54 -71 -101 -137 -104 -145 -3 -8 -9 -14 -14 -14 -5 0
0 18 11 40 11 22 18 40 15 40 -2 0 -30 -34 -61 -75 -31 -41 -58 -75 -60 -75
-2 0 7 25 21 56 27 61 32 84 10 44 -7 -14 -16 -23 -19 -20 -4 4 -86 -97 -86
-107 0 -8 26 12 38 29 13 18 14 18 28 1 13 -17 16 -16 44 15 16 17 35 32 41
32 14 0 119 109 119 123 0 6 2 8 5 5 9 -9 -17 -58 -31 -58 -7 0 -12 -8 -11
-18 0 -10 -18 -55 -41 -100 -24 -45 -40 -86 -37 -91 3 -5 -9 -40 -25 -77 -17
-37 -29 -72 -27 -78 2 -6 -6 -34 -18 -62 -21 -48 -22 -53 -6 -68 13 -14 14
-18 3 -25 -8 -5 -12 -17 -10 -27 3 -15 7 -12 24 16 54 90 96 173 84 165 -10
-6 -12 -4 -7 8 14 38 -4 13 -43 -59 -23 -41 -44 -73 -46 -71 -2 2 8 30 22 63
14 32 26 69 26 81 0 13 5 20 11 16 6 -3 7 -1 3 5 -4 7 13 55 38 107 24 52 43
95 41 95 -2 0 -15 -20 -29 -45 -15 -25 -29 -45 -33 -45 -3 0 2 10 10 23 33 51
180 331 181 346 1 9 9 31 19 49 10 17 16 32 15 32 -2 0 -47 -59 -101 -131z
m53 32 c-5 -11 -15 -23 -21 -27 -6 -3 -3 5 6 20 20 30 30 35 15 7z m-217 -496
c-3 -9 -8 -14 -10 -11 -3 3 -2 9 2 15 9 16 15 13 8 -4z"/>
<path d="M715 2643 c4 -10 11 -37 16 -60 9 -48 66 -146 80 -137 5 3 9 1 9 -3
0 -5 7 -18 15 -29 8 -10 -10 35 -41 101 -31 66 -58 126 -61 133 -3 6 -10 12
-15 12 -6 0 -7 -8 -3 -17z m66 -119 c17 -36 28 -68 26 -70 -2 -2 -18 27 -35
66 -17 38 -29 70 -26 70 3 0 19 -30 35 -66z"/>
<path d="M647 2587 c75 -123 128 -206 131 -203 2 3 17 -10 34 -27 16 -18 26
-26 22 -18 -5 9 -3 12 5 7 6 -4 9 -12 5 -17 -3 -5 8 -32 25 -59 36 -58 40 -76
10 -40 l-21 25 17 -28 c9 -16 15 -31 12 -33 -4 -5 -47 61 -47 72 0 3 5 2 12
-2 7 -4 8 -3 4 5 -4 6 -11 9 -16 6 -4 -3 -33 33 -65 80 -31 47 -59 85 -62 85
-3 0 0 -6 6 -14 6 -8 11 -18 9 -22 -1 -5 11 -31 27 -59 16 -27 30 -55 31 -62
3 -20 55 -83 69 -83 7 0 18 -7 25 -16 8 -8 22 -20 32 -25 19 -10 19 -10 2 16
-9 14 -14 28 -11 31 3 3 10 -4 17 -15 6 -12 15 -21 21 -21 6 0 1 14 -11 30
-12 17 -16 30 -10 30 12 0 -44 108 -66 126 -8 6 -10 15 -6 19 4 5 2 5 -4 2 -6
-4 -16 5 -22 18 -7 14 -19 25 -27 25 -9 0 -13 5 -10 10 3 6 1 10 -4 10 -6 0
-10 3 -10 8 3 20 -2 32 -13 26 -7 -4 -8 -3 -4 4 7 12 -17 56 -26 47 -6 -6 -68
55 -68 67 0 4 -5 8 -10 8 -7 0 -8 -6 -3 -13z m114 -129 c6 1 8 -2 4 -8 -3 -5
-1 -19 5 -30 24 -45 0 -16 -34 41 -40 68 -49 96 -10 34 13 -22 29 -39 35 -37z
m57 -73 c7 -14 12 -29 12 -33 -1 -10 -40 38 -40 49 0 18 17 8 28 -16z"/>
<path d="M2254 2572 c-27 -36 -36 -52 -31 -52 8 0 59 71 55 76 -3 2 -13 -9
-24 -24z"/>
<path d="M630 2561 c0 -22 39 -148 61 -193 6 -16 16 -28 21 -28 5 0 6 -5 3
-11 -5 -6 -12 -4 -21 8 -17 22 -18 10 -2 -16 11 -18 13 -18 24 -3 12 15 13 15
11 -5 0 -12 -5 -19 -9 -17 -4 3 -8 1 -8 -5 0 -5 5 -13 10 -16 15 -9 12 -22 -4
-22 -8 0 -12 5 -10 11 3 7 -7 27 -21 46 -33 45 -32 33 5 -47 17 -35 30 -66 30
-69 0 -2 -19 15 -42 38 -23 24 -41 47 -40 51 1 5 -1 6 -6 3 -5 -3 -19 12 -33
33 -13 22 -27 37 -31 35 -4 -3 -19 12 -34 31 -29 38 -74 70 -57 41 16 -29 165
-197 171 -192 3 3 19 -15 37 -39 25 -36 34 -42 45 -32 10 9 11 9 6 0 -4 -7 -3
-13 2 -13 5 0 24 -21 42 -47 l33 -48 -35 33 c-19 18 -37 30 -40 27 -3 -3 -36
27 -72 67 -37 40 -71 73 -76 73 -5 0 -37 40 -70 88 -34 49 -65 86 -68 83 -6
-7 15 -52 37 -78 8 -9 16 -25 17 -34 3 -16 12 -39 50 -116 11 -24 11 -28 -7
-33 -21 -7 -23 -1 82 -195 7 -14 13 -28 14 -31 0 -9 126 -179 132 -179 3 0 -3
12 -13 28 -10 15 -58 97 -107 182 -49 85 -93 161 -99 168 -6 7 -9 14 -7 16 2
3 32 -31 67 -75 35 -43 67 -78 72 -76 8 2 70 -77 70 -90 0 -4 -27 19 -61 52
l-60 60 81 -135 c45 -74 90 -147 101 -162 28 -40 23 -46 -10 -14 -16 16 -33
26 -38 23 -5 -3 -18 8 -28 26 -10 17 -20 26 -23 19 -2 -7 -8 -9 -14 -6 -7 4
-6 9 2 14 8 5 1 25 -27 69 -47 76 -65 80 -24 5 36 -64 38 -74 12 -50 -13 12
-21 14 -26 6 -4 -7 -17 -3 -36 11 -52 36 -41 15 16 -35 31 -26 53 -52 50 -57
-3 -5 1 -6 10 -3 14 6 11 12 -16 40 -18 19 -28 34 -21 34 7 0 12 -3 12 -7 0
-5 16 -20 35 -36 26 -21 33 -23 29 -10 -3 11 3 7 16 -10 12 -15 25 -25 28 -23
4 2 19 -14 34 -35 15 -22 24 -39 19 -39 -5 0 -19 14 -31 30 -12 17 -25 28 -30
25 -5 -3 -11 -1 -15 5 -3 5 -11 10 -17 10 -16 0 19 -36 73 -76 51 -37 70 -44
48 -16 -16 19 -18 40 -5 60 9 14 -25 93 -53 123 -20 22 -68 110 -50 92 7 -7
17 -13 23 -13 5 0 7 3 3 6 -3 3 -2 17 3 30 5 13 6 23 2 21 -4 -1 -8 2 -9 7 0
5 -8 13 -17 18 -9 5 -14 13 -12 17 6 10 -37 52 -55 55 -21 3 -39 16 -39 27 0
6 6 7 13 3 10 -6 10 -4 0 7 -7 7 -13 18 -13 23 0 6 23 -12 50 -39 55 -55 63
-56 25 -5 -37 50 -32 71 8 32 18 -18 38 -32 43 -32 16 0 45 -36 37 -44 -5 -4
-3 -6 2 -4 6 2 21 -7 35 -19 26 -25 36 -28 45 -13 3 5 13 6 22 3 25 -10 8 11
-40 49 -37 29 -40 30 -25 8 37 -52 38 -64 3 -27 -20 21 -33 42 -30 47 3 5 1
11 -5 15 -15 9 -12 24 5 21 9 -1 37 -24 64 -50 42 -41 49 -45 55 -30 4 10 4
15 0 11 -9 -9 -44 22 -44 40 0 12 -9 33 -32 73 -4 8 -12 24 -17 35 -5 11 -22
31 -37 45 -16 14 -23 18 -17 10 7 -9 9 -21 4 -28 -4 -8 -13 -2 -25 18 -16 28
-14 56 3 46 3 -3 7 4 7 14 0 10 -3 17 -7 14 -8 -5 -40 42 -44 65 -1 9 -7 15
-12 14 -6 -1 -10 11 -11 28 0 16 -10 42 -20 57 -16 21 -18 32 -10 46 8 15 8
17 -2 11 -10 -6 -12 -4 -7 8 3 9 1 19 -5 23 -7 5 -8 2 -3 -6 5 -8 4 -11 -3 -6
-6 4 -9 13 -6 20 3 8 1 17 -5 21 -7 3 -11 -2 -11 -14z m-65 -301 c20 -28 40
-48 44 -45 8 4 71 -68 71 -81 0 -4 -13 5 -30 21 -16 16 -30 24 -30 17 0 -6 5
-14 10 -17 6 -4 7 -11 4 -17 -4 -6 -2 -8 3 -5 6 4 19 -3 29 -16 l19 -22 -21
18 c-20 16 -22 16 -28 2 -3 -9 -4 -21 0 -26 15 -24 -7 -5 -32 29 -21 28 -22
32 -6 18 33 -29 26 -8 -13 40 -43 52 -46 72 -4 24 33 -38 29 -24 -6 25 -35 47
-58 85 -52 85 3 0 22 -23 42 -50z m189 8 c-9 -14 -23 1 -21 23 1 19 2 19 14 3
7 -9 10 -21 7 -26z m-144 -39 c0 -6 -4 -7 -10 -4 -5 3 -10 11 -10 16 0 6 5 7
10 4 6 -3 10 -11 10 -16z m151 -18 c11 -18 17 -36 15 -40 -3 -4 1 -8 8 -8 9 0
12 7 9 16 -4 9 10 0 31 -19 20 -19 35 -39 32 -45 -2 -5 4 -19 13 -29 15 -18
15 -18 -6 -7 -12 6 -24 15 -28 20 -3 6 -14 8 -24 6 -17 -3 -28 9 -36 38 -2 4
-4 10 -5 15 -1 4 -2 10 -1 15 0 4 -4 7 -9 7 -5 0 -10 5 -10 12 0 6 -9 22 -21
34 -17 19 -18 22 -5 20 10 -1 26 -17 37 -35z m7 -137 c-4 -3 -12 5 -18 18 -12
22 -12 22 6 6 10 -10 15 -20 12 -24z m-78 -55 c0 -6 -4 -7 -10 -4 -5 3 -10 11
-10 16 0 6 5 7 10 4 6 -3 10 -11 10 -16z"/>
<path d="M811 2137 c2 -1 13 -9 24 -17 19 -14 19 -14 6 3 -7 9 -18 17 -24 17
-6 0 -8 -1 -6 -3z"/>
<path d="M2041 2410 c-12 -22 -20 -40 -18 -40 7 0 48 72 44 76 -2 2 -14 -14
-26 -36z"/>
<path d="M2220 2020 c-52 -67 -79 -89 -45 -36 30 45 9 28 -32 -26 -57 -76 -61
-88 -18 -48 33 31 37 32 30 11 -4 -12 -18 -39 -31 -58 -13 -20 -24 -46 -24
-59 0 -12 -5 -24 -10 -26 -6 -2 -12 -13 -13 -26 0 -12 -4 -22 -8 -22 -13 0
-28 -51 -21 -70 7 -19 11 -17 48 27 68 83 70 90 9 33 -56 -53 -53 -42 13 39
15 19 21 32 15 27 -7 -4 -13 -3 -13 3 0 5 4 12 10 16 5 3 19 20 31 38 l22 32
-36 -34 c-21 -19 -37 -30 -37 -24 0 7 4 14 9 17 31 20 177 256 158 256 -1 0
-27 -31 -57 -70z m-100 -243 c0 -2 -10 -12 -22 -23 l-23 -19 19 23 c18 21 26
27 26 19z"/>
<path d="M2530 1980 c-19 -16 -40 -30 -45 -30 -6 0 -16 -9 -23 -20 -7 -11 -18
-20 -25 -20 -6 0 -23 -9 -37 -20 -14 -11 -32 -20 -41 -20 -9 0 -28 -9 -42 -20
-31 -25 -38 -25 -30 -2 5 13 0 11 -20 -7 -15 -13 -24 -27 -22 -31 2 -4 -9 -20
-25 -35 -17 -16 -30 -25 -30 -20 0 11 -98 -84 -111 -107 -19 -35 16 -8 60 46
25 31 50 52 58 49 8 -3 -4 -21 -35 -49 -26 -24 -41 -43 -34 -44 15 0 93 80 87
90 -6 9 19 32 27 25 3 -3 13 5 24 17 10 12 13 18 5 13 -9 -5 -12 -4 -7 3 3 6
15 9 26 7 11 -2 23 1 26 7 5 7 2 8 -6 3 -9 -5 -11 -4 -6 4 6 9 11 9 21 1 9 -8
15 -8 20 0 3 6 10 8 15 5 5 -3 11 -1 15 5 3 5 12 10 18 10 7 0 -29 -42 -80
-93 -86 -85 -163 -173 -163 -183 0 -14 41 25 155 149 70 76 128 144 129 151 1
7 31 37 66 67 78 66 105 83 67 42 -15 -16 -25 -32 -22 -34 3 -3 -7 -16 -22
-30 -21 -18 -24 -19 -13 -4 12 17 12 18 0 7 -8 -7 -16 -17 -16 -22 -1 -6 -3
-12 -4 -15 -1 -3 -3 -9 -4 -14 0 -5 -17 -29 -36 -52 -19 -24 -34 -47 -33 -50
1 -3 -27 -28 -62 -55 -77 -57 -79 -71 -3 -18 l53 37 -58 -53 c-31 -28 -56 -55
-54 -58 1 -4 -11 -20 -27 -37 -16 -16 -26 -24 -21 -16 5 10 4 12 -4 7 -6 -4
-9 -11 -7 -15 7 -10 -23 -53 -32 -47 -4 2 -32 -13 -62 -35 -30 -21 -51 -39
-46 -39 4 0 -4 -14 -18 -31 -14 -17 -26 -37 -26 -46 0 -8 -26 -41 -59 -74 -32
-32 -56 -59 -53 -59 3 0 -3 -9 -13 -20 -10 -11 -16 -22 -13 -25 3 -3 59 51
125 119 121 124 166 177 102 121 -75 -67 -80 -67 -20 2 35 40 67 71 71 70 7
-2 160 122 160 130 0 3 -7 3 -15 -1 -8 -3 -15 -4 -15 -3 0 1 36 40 80 87 44
47 80 90 80 97 0 6 11 24 24 40 12 15 35 51 51 78 15 28 32 55 37 62 11 14 2
33 -15 33 -7 0 -28 -14 -47 -30z m-103 -97 c-4 -27 -17 -44 -28 -37 -5 3 -16
0 -24 -6 -8 -7 -15 -9 -15 -5 0 4 -8 1 -17 -6 -15 -11 -15 -10 1 8 10 13 22
21 26 18 4 -2 18 7 30 20 28 30 31 30 27 8z m93 -7 c0 -2 -7 -7 -16 -10 -8 -3
-12 -2 -9 4 6 10 25 14 25 6z m-70 -101 c-7 -8 -18 -15 -24 -15 -6 0 -2 7 8
15 25 19 32 19 16 0z"/>
<path d="M2250 1864 c0 -14 3 -14 15 -4 8 7 15 14 15 16 0 2 -7 4 -15 4 -8 0
-15 -7 -15 -16z"/>
<path d="M405 1840 c-6 -9 92 -130 105 -130 3 0 14 -15 25 -32 10 -18 26 -39
34 -45 14 -12 14 -14 -1 -26 -13 -11 -15 -16 -6 -25 18 -18 32 -14 17 5 -8 9
18 -3 56 -27 78 -49 88 -59 75 -75 -6 -7 -5 -16 2 -23 8 -8 8 -12 1 -12 -18 0
-34 25 -22 37 7 7 -6 22 -41 47 -29 21 -54 35 -56 33 -3 -3 16 -18 41 -35 28
-18 41 -33 35 -37 -7 -4 -24 4 -38 17 -44 41 -109 85 -92 64 24 -31 59 -65 86
-82 13 -9 21 -21 17 -27 -3 -6 -1 -7 6 -3 13 9 39 -14 34 -30 -2 -6 3 -17 12
-24 8 -7 15 -18 15 -25 0 -8 21 -26 48 -42 26 -15 48 -34 50 -40 3 -19 -9 -16
-37 11 -15 13 -39 32 -56 42 -26 17 -28 17 -22 2 6 -17 4 -17 -36 -1 -23 9
-45 20 -48 25 -3 4 -14 2 -24 -6 -18 -13 -16 -17 39 -70 31 -31 62 -54 66 -51
11 7 72 -22 82 -39 14 -21 -1 -17 -37 9 -42 33 -58 27 -22 -9 25 -25 126 -86
142 -86 5 0 -10 14 -33 31 -69 51 -41 44 49 -12 80 -49 82 -51 44 -45 -33 5
-25 -2 55 -40 116 -56 140 -66 140 -56 0 4 -32 23 -71 42 -40 19 -74 41 -76
50 -3 9 -26 30 -53 46 -36 22 -46 32 -38 42 6 6 17 12 25 12 7 0 16 7 19 15 5
11 11 12 25 4 13 -7 19 -6 19 1 0 6 5 8 10 5 25 -15 7 16 -22 39 -18 14 -41
32 -50 41 -10 8 -18 13 -18 10 0 -3 -17 3 -39 14 -21 11 -41 18 -44 15 -3 -3
-23 6 -44 20 -42 29 -38 34 7 11 17 -9 30 -13 30 -10 0 3 18 -4 40 -15 49 -25
55 -25 36 1 -8 12 -12 28 -9 37 4 10 2 13 -5 8 -12 -7 -122 61 -122 75 0 15 9
10 61 -31 52 -41 74 -44 76 -10 1 13 -13 30 -43 50 -75 52 -114 97 -126 148
-6 22 6 31 17 12 3 -5 17 -10 30 -10 27 0 41 -15 23 -24 -7 -3 -3 -3 10 0 13
3 29 0 37 -6 8 -7 20 -10 27 -8 7 3 -9 17 -35 32 -26 16 -51 26 -54 22 -3 -3
-22 4 -42 16 -20 11 -52 30 -71 41 l-35 21 19 -22 c11 -12 15 -22 10 -22 -13
1 -50 30 -38 30 5 1 -7 14 -26 30 -39 34 -32 40 11 9 16 -11 29 -17 29 -14 0
10 113 -56 127 -74 7 -9 13 -12 13 -8 0 11 -67 77 -73 71 -2 -2 -10 3 -18 13
-9 11 -10 14 -1 9 6 -4 12 -5 12 -2 0 3 -10 10 -21 17 -17 9 -20 8 -14 -2 6
-8 4 -10 -4 -5 -7 5 -10 11 -7 14 7 7 -44 62 -57 62 -4 0 1 -12 12 -27 12 -14
19 -28 17 -31 -5 -4 -57 19 -106 47 -62 34 -75 37 -85 21z m55 -34 c17 -22 36
-20 19 2 -8 9 13 -8 46 -38 33 -30 60 -59 60 -63 0 -9 46 -46 58 -47 5 0 5 5
2 10 -3 6 -2 10 4 10 15 0 24 -20 9 -20 -8 -1 -6 -6 6 -15 24 -18 31 -46 9
-38 -12 5 -12 7 -1 15 9 6 5 7 -12 3 -17 -4 -21 -3 -12 3 11 7 10 11 -4 16 -9
3 -19 4 -22 1 -3 -3 0 -5 6 -5 7 0 11 -4 9 -10 -1 -5 18 -23 43 -40 43 -29 49
-41 9 -20 -43 23 -14 -2 76 -66 52 -37 93 -70 90 -72 -6 -6 -115 61 -115 71 0
4 -6 5 -12 1 -7 -4 -10 -4 -6 1 4 4 -22 30 -57 57 -59 46 -85 71 -52 52 8 -5
8 -2 -2 9 -7 9 -10 17 -6 17 5 0 0 9 -10 20 -10 11 -23 20 -29 20 -6 0 0 -9
14 -20 14 -11 21 -20 15 -19 -17 0 -47 27 -41 37 3 6 -29 45 -71 88 -43 42
-69 72 -57 66 11 -6 26 -18 34 -26z m295 -376 c10 -11 14 -20 8 -20 -5 0 -18
9 -28 20 -10 11 -14 20 -8 20 5 0 18 -9 28 -20z m-25 -10 c16 -11 34 -18 42
-15 7 2 29 -9 48 -26 23 -20 27 -26 12 -19 -13 6 -32 13 -42 15 -18 3 -100 54
-100 61 0 8 13 3 40 -16z m-79 -80 c33 -17 64 -28 69 -25 5 3 27 -6 47 -20 40
-27 59 -32 47 -13 -4 7 -3 8 5 4 6 -4 8 -12 5 -18 -4 -7 -2 -8 4 -4 7 4 27 -5
46 -21 40 -31 41 -43 1 -17 -14 9 -36 18 -48 19 -30 4 -89 40 -80 49 4 4 -1 4
-12 1 -16 -6 -17 -5 -5 4 9 7 10 11 3 11 -26 0 -22 -20 7 -35 16 -8 30 -19 30
-23 0 -5 21 -18 46 -30 26 -13 44 -25 42 -28 -7 -7 -72 18 -83 33 -5 7 -39 29
-75 49 -36 19 -57 33 -47 30 29 -9 19 2 -28 30 -41 24 -53 34 -40 34 3 0 33
-14 66 -30z m257 -68 c29 -19 50 -37 48 -39 -2 -2 -36 13 -76 33 -40 21 -67
40 -61 42 8 3 6 9 -6 19 -22 19 23 -8 95 -55z"/>
<path d="M490 1786 c0 -2 8 -10 18 -17 15 -13 16 -12 3 4 -13 16 -21 21 -21
13z"/>
<path d="M530 1726 c0 -2 8 -10 18 -17 15 -13 16 -12 3 4 -13 16 -21 21 -21
13z"/>
<path d="M2243 1727 c-34 -29 -58 -53 -53 -55 9 -3 57 25 75 43 75 80 66 85
-22 12z"/>
<path d="M2218 1589 c-32 -22 -58 -44 -58 -50 0 -6 -5 -7 -12 -3 -7 4 -8 3 -4
-5 5 -7 0 -19 -11 -29 -10 -9 -25 -26 -33 -37 -14 -18 -12 -17 15 2 30 21 174
163 165 162 -3 0 -31 -18 -62 -40z"/>
<path d="M2307 1559 c-31 -28 -55 -54 -53 -58 3 -4 -28 -41 -69 -81 -41 -40
-72 -77 -69 -81 7 -12 39 -3 40 12 1 8 2 18 3 23 0 5 7 4 14 -2 9 -7 23 -2 52
18 22 16 49 35 60 41 19 11 19 11 3 -7 -9 -10 -16 -22 -15 -26 1 -4 -17 -23
-40 -43 -24 -20 -40 -29 -37 -21 9 24 -2 20 -64 -26 -31 -22 -64 -46 -72 -52
-8 -5 -1 5 15 24 34 40 18 28 -78 -54 -37 -32 -66 -60 -64 -63 4 -3 91 51 107
67 14 14 81 42 86 37 4 -3 -5 -20 -20 -37 -14 -17 -26 -38 -26 -46 0 -8 -4
-14 -8 -14 -11 0 -122 -111 -122 -122 0 -5 7 -11 16 -15 10 -4 27 6 47 27 l32
33 -30 -20 c-77 -51 -69 -42 74 89 35 32 59 58 53 58 -6 0 -14 -4 -17 -10 -3
-5 -11 -10 -18 -10 -6 0 32 44 86 98 53 53 96 101 96 105 0 5 32 31 70 58 103
72 96 61 -44 -65 -16 -15 -23 -25 -15 -21 8 4 -3 -10 -25 -30 -22 -20 -34 -34
-27 -30 27 14 9 -5 -38 -41 -27 -21 -48 -40 -45 -42 2 -3 11 1 20 8 9 7 17 11
20 9 2 -3 -30 -35 -71 -72 -41 -37 -70 -67 -65 -67 6 0 11 -5 11 -11 0 -5 -5
-7 -12 -3 -6 4 -8 3 -5 -3 4 -6 -10 -22 -31 -36 -35 -25 -68 -65 -59 -73 5 -5
137 74 157 94 13 13 13 14 0 7 -8 -5 -34 -22 -58 -38 -24 -16 -45 -27 -47 -25
-6 6 80 92 119 118 20 14 34 30 32 36 -3 6 6 17 19 24 14 7 22 16 20 20 -3 4
13 28 35 53 22 25 40 47 40 50 0 3 15 21 33 40 17 19 51 56 75 81 24 26 42 52
39 59 -5 15 -35 10 -67 -13 -14 -9 -31 -15 -39 -12 -8 2 -11 0 -8 -5 3 -5 -14
-18 -38 -29 -39 -18 -45 -18 -50 -5 -3 8 -3 13 0 9 4 -3 24 13 46 37 43 47 53
72 14 35 -14 -13 -27 -21 -31 -18 -9 9 50 46 65 40 8 -3 11 0 7 6 -3 6 -2 13
4 17 10 6 34 45 27 45 -1 0 -29 -23 -60 -51z m-77 -133 c0 -2 -8 -10 -17 -17
-16 -13 -17 -12 -4 4 13 16 21 21 21 13z m-80 -74 c0 -5 -7 -9 -15 -9 -8 0
-12 4 -9 9 3 4 9 8 15 8 5 0 9 -4 9 -8z"/>
<path d="M2326 1231 c-21 -11 -45 -17 -54 -14 -12 3 -13 2 -4 -4 10 -7 9 -13
-5 -25 -30 -25 -83 -60 -83 -54 0 3 19 18 41 33 23 15 36 29 30 31 -6 2 -40
-20 -76 -48 -66 -53 -81 -69 -45 -50 11 6 20 8 20 5 0 -3 48 24 106 60 59 37
108 64 110 62 2 -2 -33 -29 -79 -61 -45 -32 -74 -56 -64 -52 38 12 13 -6 -53
-39 -39 -20 -68 -40 -65 -45 3 -6 -5 -15 -19 -22 -14 -6 -26 -15 -26 -19 0 -4
-9 -11 -21 -14 -11 -4 -18 -9 -16 -12 7 -6 139 61 172 89 15 13 47 41 70 63
22 22 58 54 80 70 30 25 36 34 29 48 -9 16 -12 16 -48 -2z m-180 -186 c-11 -8
-25 -15 -30 -15 -6 1 0 7 14 15 32 19 40 18 16 0z"/>
<path d="M740 1172 c0 -14 98 -85 158 -116 29 -14 52 -25 52 -23 0 2 -47 36
-105 76 -58 40 -105 68 -105 63z"/>
<path d="M820 1070 c8 -5 20 -10 25 -10 6 0 3 5 -5 10 -8 5 -19 10 -25 10 -5
0 -3 -5 5 -10z"/>
<path d="M846 1053 c-15 -4 -16 -7 -5 -14 15 -10 12 -10 -60 -13 -37 -1 -70
-15 -40 -17 40 -2 66 -6 89 -13 18 -5 21 -4 11 3 -16 11 76 9 119 -3 14 -4 5
5 -20 18 -25 14 -53 25 -63 26 -10 0 -15 5 -12 10 3 6 5 9 3 9 -2 -1 -12 -4
-22 -6z"/>
<path d="M995 1010 c-3 -6 1 -7 9 -4 18 7 21 14 7 14 -6 0 -13 -4 -16 -10z"/>
<path d="M2123 994 c-60 -27 -73 -41 -17 -18 20 8 38 14 40 12 2 -2 -34 -21
-81 -42 -46 -21 -86 -44 -89 -52 -8 -20 164 70 193 100 28 31 21 31 -46 0z"/>
<path d="M716 1000 c20 -20 204 -89 221 -83 11 4 -15 18 -72 38 -53 19 -83 35
-74 38 8 4 4 4 -7 2 -12 -3 -34 -1 -50 5 -22 8 -26 8 -18 0z"/>
<path d="M1022 1001 c-10 -6 -5 -11 19 -20 45 -15 33 -22 -20 -10 -44 10 -85
4 -76 -10 2 -5 -8 -6 -23 -3 -24 5 -24 6 -7 13 13 5 15 8 5 8 -8 0 -21 -3 -29
-8 -9 -6 23 -21 100 -46 63 -21 123 -43 134 -49 11 -6 40 -16 65 -22 l45 -12
-40 -2 -40 -2 45 -14 45 -14 -54 4 c-29 2 -56 7 -60 12 -3 5 -17 9 -31 10 -14
0 -43 4 -65 7 -38 7 -39 7 -10 -5 16 -6 37 -21 47 -33 12 -15 37 -25 90 -35
40 -7 85 -19 100 -27 33 -16 204 -21 333 -10 104 9 284 50 335 77 19 11 68 33
109 50 72 31 144 70 128 70 -4 0 -35 -11 -69 -25 -35 -14 -68 -23 -76 -20 -7
2 -11 1 -8 -3 8 -13 -122 -68 -224 -95 -114 -30 -340 -49 -455 -38 -71 7 -74
8 -30 11 43 2 36 4 -50 15 -102 14 -172 29 -182 39 -11 11 29 6 81 -8 28 -8
116 -22 196 -31 119 -13 165 -14 255 -5 61 6 117 13 125 15 124 33 157 47 170
70 8 14 38 39 67 56 67 39 69 47 3 14 -27 -14 -50 -23 -50 -21 0 3 27 24 60
47 33 23 60 44 60 46 0 2 -22 -8 -49 -21 -46 -24 -117 -97 -105 -109 19 -19
-142 -65 -263 -76 -144 -12 -363 5 -371 29 -8 22 -41 49 -69 56 -16 4 -30 10
-33 15 -3 4 -41 18 -85 32 l-80 25 48 1 c35 1 47 5 47 16 0 8 5 15 12 15 19 0
-4 18 -32 24 -14 4 -31 2 -38 -3z"/>
<path d="M2100 929 c-58 -32 -53 -33 18 -4 23 9 42 21 42 26 0 11 4 13 -60
-22z"/>
<path d="M945 910 c-18 -7 -17 -9 10 -19 17 -6 38 -16 48 -21 10 -6 28 -8 39
-4 14 4 18 2 14 -5 -8 -13 3 -14 23 -2 9 6 -2 13 -37 22 -28 7 -49 16 -46 20
2 4 -6 5 -18 1 -14 -3 -19 -2 -14 6 8 14 8 14 -19 2z"/>
<path d="M1100 850 c-9 -6 -10 -10 -3 -10 6 0 15 5 18 10 8 12 4 12 -15 0z"/>
</g>
</svg>
