<?xml version="1.0" standalone="no"?>
<!DOCTYPE svg PUBLIC "-//W3C//DTD SVG 20010904//EN"
 "http://www.w3.org/TR/2001/REC-SVG-20010904/DTD/svg10.dtd">
<svg version="1.0" xmlns="http://www.w3.org/2000/svg"
 width="300.000000pt" height="370.000000pt" viewBox="0 0 300.000000 370.000000"
 preserveAspectRatio="xMidYMid meet">
<metadata>
Created by potrace 1.10, written by Peter Selinger 2001-2011
</metadata>
<g transform="translate(0.000000,370.000000) scale(0.100000,-0.100000)"
fill="#ffff00" stroke="none">
<path d="M1284 3511 c3 -31 12 -50 30 -65 14 -12 35 -43 46 -70 24 -57 33 -57
20 -1 -6 25 -5 44 1 51 7 9 4 26 -10 56 l-20 43 6 -52 c3 -29 3 -53 -1 -53 -3
0 -22 30 -41 68 l-36 67 5 -44z"/>
<path d="M1485 3488 c-4 -29 -10 -55 -14 -58 -4 -3 -1 -21 6 -40 l12 -35 0 43
c1 23 6 42 11 42 6 0 10 -6 10 -14 0 -8 4 -26 10 -41 l10 -26 25 25 c27 27 46
67 44 94 0 9 -7 -2 -16 -25 -8 -23 -20 -41 -26 -40 -21 4 -36 31 -37 64 0 76
-25 84 -35 11z"/>
<path d="M1678 3472 l-38 -67 4 45 c2 25 7 54 11 65 3 11 -1 7 -11 -10 -11
-19 -18 -55 -19 -98 l-2 -69 26 49 c15 27 37 59 49 71 13 13 22 34 22 52 0 17
-1 30 -2 30 -2 0 -20 -31 -40 -68z"/>
<path d="M2160 3520 c0 -16 7 -20 31 -20 26 0 31 -3 26 -20 -5 -18 0 -20 38
-20 38 0 42 2 38 19 -3 12 -11 17 -19 14 -9 -3 -14 2 -14 13 0 16 2 17 10 4 8
-12 10 -12 11 5 0 20 0 20 8 0 8 -20 8 -20 13 0 5 16 6 16 7 3 1 -24 74 -19
79 5 3 13 -13 15 -112 16 -110 1 -116 0 -116 -19z m90 -27 c0 -21 -3 -24 -9
-14 -5 8 -7 20 -4 28 8 21 13 15 13 -14z"/>
<path d="M2300 3486 c0 -8 5 -18 10 -21 6 -3 10 1 10 9 0 8 -4 18 -10 21 -5 3
-10 -1 -10 -9z"/>
<path d="M1404 3473 c3 -10 8 -31 12 -48 6 -29 6 -29 -11 -10 -16 19 -16 19
-10 1 28 -89 38 -116 41 -116 3 0 2 24 0 53 -4 37 -3 45 3 27 5 -14 9 -19 10
-12 1 7 6 10 11 7 13 -8 13 -3 -1 32 -8 21 -12 24 -19 13 -6 -9 -12 -2 -20 28
-6 23 -13 42 -16 42 -3 0 -3 -8 0 -17z"/>
<path d="M1120 3430 c11 -22 27 -40 35 -40 8 0 30 -24 50 -52 19 -29 35 -46
35 -38 1 9 10 4 25 -15 27 -33 30 -30 15 10 -5 14 -14 24 -19 21 -5 -3 -16 4
-24 17 -20 30 -85 96 -90 91 -2 -2 -10 7 -17 21 -22 42 -32 28 -10 -15z"/>
<path d="M1880 3451 c-6 -12 -15 -19 -21 -16 -5 4 -9 2 -9 -3 0 -5 -19 -29
-42 -54 -28 -29 -44 -55 -45 -74 -1 -26 2 -24 30 23 18 28 41 57 53 63 22 12
59 68 51 77 -3 2 -10 -5 -17 -16z"/>
<path d="M1263 3435 c3 -11 9 -32 13 -47 3 -16 10 -26 14 -23 4 3 2 20 -4 40
-13 37 -32 63 -23 30z"/>
<path d="M1722 3423 c-5 -16 -13 -37 -17 -48 -7 -18 -6 -18 8 -5 14 14 34 80
24 80 -3 0 -10 -12 -15 -27z"/>
<path d="M1211 3436 c-2 -18 43 -96 55 -96 6 0 15 -7 18 -16 4 -9 9 -14 12
-11 3 3 -9 26 -28 50 -18 25 -38 53 -45 63 -6 11 -12 15 -12 10z"/>
<path d="M1601 3417 c-5 -14 -15 -28 -20 -32 -6 -3 -11 -25 -10 -48 l1 -42 9
38 c5 21 16 51 25 68 8 17 13 33 10 36 -3 3 -10 -6 -15 -20z"/>
<path d="M1766 3402 c-13 -20 -31 -43 -40 -51 -9 -7 -16 -18 -16 -23 0 -7 5
-6 13 1 8 6 16 9 18 6 3 -2 17 20 32 50 31 64 28 72 -7 17z"/>
<path d="M1305 3374 c3 -50 20 -104 30 -104 4 0 3 9 0 21 -4 11 -8 40 -10 65
-1 25 -8 51 -13 56 -8 8 -10 -3 -7 -38z"/>
<path d="M1686 3388 c-3 -18 -7 -51 -10 -73 l-5 -40 15 34 c8 18 13 40 10 47
-3 8 -1 25 4 39 6 15 6 25 0 25 -5 0 -11 -15 -14 -32z"/>
<path d="M964 3365 c32 -48 109 -205 109 -222 0 -7 13 -27 29 -45 l29 -33 -16
33 c-8 17 -13 32 -9 32 3 0 -4 15 -15 34 -12 18 -21 39 -21 45 0 7 -11 27 -24
44 -12 18 -27 39 -32 47 -8 15 76 -52 145 -114 l33 -31 -31 46 c-17 26 -31 51
-31 56 0 14 -51 85 -57 79 -3 -3 6 -21 21 -40 14 -19 26 -43 26 -53 -1 -15 -2
-16 -10 -2 -5 8 -46 48 -91 89 -71 64 -79 69 -55 35z"/>
<path d="M1085 3375 c11 -16 30 -52 43 -80 25 -51 59 -95 74 -95 5 0 -10 25
-33 56 -22 30 -38 58 -35 62 4 3 24 -12 46 -33 43 -42 52 -40 20 6 -12 15 -26
42 -31 59 -6 16 -15 30 -20 30 -12 0 -11 -14 2 -27 6 -6 9 -17 7 -23 -2 -7
-22 7 -47 31 -36 36 -41 39 -26 14z"/>
<path d="M1886 3359 c-40 -43 -59 -46 -33 -5 9 13 13 26 10 30 -6 5 -83 -126
-83 -141 0 -4 18 13 40 37 22 24 43 40 46 37 8 -8 -19 -51 -54 -89 -14 -15
-23 -30 -20 -33 3 -3 21 12 41 34 19 22 37 37 40 35 6 -6 57 55 57 68 0 6 -14
-7 -31 -28 -26 -32 -30 -35 -24 -14 4 14 18 42 32 63 13 22 23 40 21 42 -2 2
-21 -14 -42 -36z"/>
<path d="M2020 3360 c-17 -22 -35 -38 -40 -35 -5 3 -25 -14 -45 -37 -20 -24
-42 -43 -50 -43 -12 0 -65 -67 -65 -82 0 -5 35 25 133 113 15 14 24 30 21 36
-5 7 -2 8 5 4 7 -5 10 -14 7 -22 -10 -26 1 -14 38 42 44 66 42 82 -4 24z"/>
<path d="M1721 3293 c-15 -33 -14 -38 5 -23 24 21 35 47 19 47 -7 0 -18 -11
-24 -24z"/>
<path d="M1950 3240 c-12 -16 -19 -30 -15 -30 3 0 -2 -15 -12 -32 -9 -18 -16
-37 -15 -42 2 -5 -3 -16 -11 -25 -27 -31 -30 -46 -5 -23 14 13 33 45 43 70 23
66 23 64 41 90 9 12 12 22 6 22 -6 0 -20 -13 -32 -30z"/>
<path d="M1019 3166 c17 -32 31 -64 31 -70 0 -7 12 -28 26 -47 15 -19 23 -25
19 -14 -4 11 -8 25 -9 31 -1 6 -10 23 -19 38 -10 15 -15 31 -12 36 3 5 -11 26
-31 47 l-36 38 31 -59z"/>
<path d="M1977 3187 c-15 -17 -27 -38 -27 -45 0 -8 -7 -28 -16 -45 -32 -62
-35 -69 -31 -74 8 -7 51 60 55 85 2 13 15 42 29 63 32 49 27 58 -10 16z"/>
<path d="M950 3208 c0 -13 34 -85 51 -110 11 -14 19 -33 19 -42 0 -9 14 -30
30 -48 34 -38 31 -17 -7 44 -13 21 -23 45 -23 53 0 9 -12 33 -27 53 -35 48
-43 57 -43 50z"/>
<path d="M2012 3158 c-20 -29 -36 -56 -34 -61 1 -5 -6 -23 -16 -41 -10 -17
-22 -40 -26 -51 -6 -17 -4 -17 18 4 15 14 26 33 26 44 0 11 12 35 26 54 14 19
27 40 28 46 1 7 8 22 14 35 22 39 3 23 -36 -30z"/>
<path d="M760 3176 c0 -4 16 -30 35 -59 19 -28 35 -57 35 -63 0 -6 8 -22 18
-35 11 -13 32 -46 47 -74 l28 -50 -33 30 -33 30 23 -35 c13 -19 29 -38 35 -42
5 -4 10 -16 10 -26 0 -10 6 -26 14 -36 24 -29 0 -32 -25 -3 -39 45 -28 16 17
-43 48 -65 56 -73 40 -43 -20 39 -11 39 24 -2 45 -52 45 -33 0 24 -34 42 -47
80 -24 65 13 -8 15 -13 -35 91 -21 44 -59 109 -84 145 -29 41 -36 57 -20 42
13 -12 27 -20 29 -17 3 2 31 -18 62 -46 31 -28 57 -49 57 -46 0 27 -51 85 -69
77 -1 -1 -23 17 -47 41 -24 24 -44 39 -44 34 0 -5 -13 4 -30 20 -16 16 -30 25
-30 21z m198 -352 c-4 -3 -12 5 -18 18 -12 22 -12 22 6 6 10 -10 15 -20 12
-24z"/>
<path d="M2230 3171 c0 -4 -18 -20 -39 -34 -22 -15 -51 -39 -65 -53 -14 -15
-34 -29 -46 -31 -19 -3 -19 -1 6 38 14 22 24 43 22 44 -2 2 -23 -18 -46 -45
-24 -27 -36 -47 -27 -44 19 8 19 1 -1 -39 l-15 -32 35 37 c20 21 36 35 36 31
0 -4 11 4 25 17 14 13 25 20 25 15 0 -5 12 2 27 16 31 28 23 12 -29 -57 -21
-28 -38 -57 -38 -65 0 -8 -9 -25 -20 -39 -11 -14 -20 -32 -20 -40 0 -8 -7 -24
-15 -34 -17 -23 -20 -40 -5 -31 19 12 10 -14 -25 -66 -50 -73 -52 -79 -13 -38
19 19 39 34 45 32 6 -2 20 9 30 24 30 43 37 61 14 34 -24 -27 -42 -20 -23 9
16 27 15 35 -3 20 -8 -7 -15 -8 -15 -2 0 15 26 33 35 24 5 -4 5 -2 2 4 -4 7
-1 14 6 17 6 3 20 20 30 38 l18 34 -23 -27 c-53 -62 -33 -7 32 87 15 22 28 44
28 48 1 8 30 57 58 95 10 13 12 22 5 22 -6 0 -11 -4 -11 -9z"/>
<path d="M906 3114 c11 -17 48 -58 84 -90 55 -50 60 -53 37 -21 -16 20 -26 40
-24 45 3 4 -6 21 -19 37 -25 32 -33 23 -9 -9 35 -46 11 -37 -36 14 -34 37 -45
45 -33 24z"/>
<path d="M2018 3085 c-10 -13 -18 -30 -18 -37 0 -7 -9 -24 -20 -38 -30 -38
-24 -47 10 -15 17 16 28 35 26 41 -2 6 2 21 11 33 20 30 12 44 -9 16z"/>
<path d="M772 2716 c97 -118 165 -218 137 -200 -8 4 -24 21 -37 36 -13 15 -28
28 -33 28 -6 0 4 -15 20 -32 17 -18 31 -36 31 -40 0 -5 7 -8 15 -8 16 0 20
-12 8 -23 -3 -4 -13 -1 -22 6 -9 6 -1 -7 18 -30 18 -24 29 -43 25 -43 -11 0
27 -39 61 -63 28 -20 29 -20 16 -2 -8 11 -26 33 -40 49 -15 16 -20 25 -12 21
8 -5 2 8 -12 27 -27 34 -27 36 -7 41 11 3 18 2 15 -2 -2 -5 7 -19 22 -32 14
-13 22 -17 17 -9 -5 8 -9 17 -9 20 0 10 -91 132 -134 181 -24 27 -40 49 -36
49 4 0 42 -27 86 -59 43 -33 73 -51 66 -40 -6 10 -16 19 -20 19 -5 0 -7 7 -4
15 7 16 -9 30 -35 30 -9 0 -36 18 -59 40 -23 22 -39 34 -35 28 12 -22 -1 -14
-41 22 -59 54 -59 42 -1 -29z"/>
<path d="M883 2747 c15 -20 27 -40 27 -45 0 -4 11 -19 25 -32 14 -13 25 -29
25 -35 0 -12 34 -46 60 -60 15 -9 1 11 -51 70 -15 17 -30 43 -33 59 -8 31 -18
43 -56 65 -25 14 -25 14 3 -22z"/>
<path d="M2107 2757 c-15 -12 -34 -39 -42 -60 -9 -21 -34 -58 -57 -83 -22 -24
-37 -44 -33 -44 10 0 75 58 75 67 0 5 8 19 18 33 11 14 19 29 19 33 1 5 14 22
29 38 34 35 28 46 -9 16z"/>
<path d="M2233 2745 c-43 -36 -59 -44 -47 -22 4 6 -14 -8 -39 -32 -25 -24 -50
-41 -55 -37 -5 3 -15 -1 -22 -9 -7 -8 -9 -15 -4 -15 4 0 -5 -13 -21 -30 -16
-16 -24 -30 -19 -30 6 0 21 11 33 24 13 14 51 44 85 68 l61 42 -45 -53 c-25
-29 -49 -60 -55 -69 -5 -9 -26 -37 -45 -62 -19 -24 -35 -47 -35 -50 0 -3 -4
-11 -8 -17 -5 -7 -4 -13 1 -13 6 0 13 7 16 16 3 8 10 13 15 9 6 -3 8 4 6 16
-4 21 -4 21 15 4 19 -17 19 -18 -5 -37 -14 -11 -23 -23 -20 -28 3 -5 -8 -24
-25 -43 -43 -50 -37 -56 12 -11 24 21 42 43 40 49 -1 6 7 21 18 33 23 24 25
33 9 29 -29 -6 -14 43 32 106 27 37 49 71 49 75 0 4 23 31 51 60 59 63 60 77
2 27z"/>
<path d="M2010 2693 c-43 -65 -44 -69 -2 -29 23 22 38 44 35 52 -7 18 -4 20
-33 -23z"/>
<path d="M979 2677 c19 -21 39 -37 44 -37 10 0 -31 55 -41 55 -4 0 -14 4 -22
9 -8 5 1 -7 19 -27z"/>
<path d="M634 2572 c20 -33 90 -101 98 -96 5 3 18 -2 29 -12 10 -9 19 -13 19
-9 0 5 10 0 23 -11 36 -33 129 -96 133 -91 3 2 -2 10 -11 17 -17 14 -20 40 -5
40 5 0 -13 21 -41 47 -27 25 -51 44 -53 42 -6 -6 57 -75 74 -81 12 -4 11 -5
-2 -10 -10 -4 -39 12 -82 48 -63 52 -84 65 -71 44 13 -20 -12 -9 -36 16 -28
31 -86 73 -75 56z"/>
<path d="M2122 2542 c-17 -19 -30 -38 -27 -41 7 -6 67 59 63 69 -2 4 -18 -9
-36 -28z"/>
<path d="M2316 2536 c-27 -23 -45 -45 -39 -49 5 -3 32 16 58 43 60 61 48 65
-19 6z"/>
<path d="M2238 2503 c-8 -19 -119 -104 -127 -98 -6 3 -18 -9 -27 -27 -13 -24
-13 -30 -3 -22 57 45 130 94 138 94 19 0 49 33 44 46 -6 15 -19 19 -25 7z"/>
<path d="M2124 2455 c-41 -38 -38 -55 4 -22 14 11 56 67 50 67 -3 0 -26 -20
-54 -45z"/>
<path d="M730 2453 c0 -7 5 -15 10 -18 14 -9 1 -27 -13 -19 -7 4 6 -13 28 -37
77 -83 88 -99 81 -106 -4 -4 -10 -3 -14 2 -4 6 -22 24 -41 40 -42 37 -28 8 24
-50 19 -22 33 -45 31 -52 -3 -7 0 -15 6 -19 7 -5 8 -2 3 6 -5 9 -4 11 4 6 6
-4 9 -12 6 -17 -4 -5 5 -24 19 -42 15 -19 26 -38 26 -44 0 -5 14 -20 31 -32
27 -20 30 -21 20 -4 -5 11 -17 26 -26 33 -9 7 -21 22 -26 32 -10 18 -9 19 13
7 22 -11 22 -11 8 7 -9 10 -33 39 -54 62 -48 56 -38 68 14 17 43 -42 64 -45
27 -5 -12 14 -34 41 -47 60 -14 19 -37 48 -52 64 -39 40 -35 56 4 20 l33 -29
-25 29 c-58 68 -90 99 -90 89z"/>
<path d="M2213 2402 c-29 -31 -53 -58 -53 -61 0 -2 16 9 36 24 46 35 33 6 -20
-44 -20 -19 -36 -40 -36 -46 0 -6 -13 -24 -30 -40 -16 -16 -30 -33 -30 -39 0
-5 17 7 38 27 63 61 68 42 7 -28 -32 -36 -53 -65 -48 -65 5 0 14 5 21 12 24
24 11 -5 -19 -43 -17 -21 -26 -39 -21 -39 6 0 19 11 29 23 13 16 24 22 37 17
16 -5 13 -10 -20 -37 -22 -17 -37 -34 -34 -37 3 -3 24 10 48 28 23 18 39 36
36 38 -2 3 2 11 11 18 26 21 17 29 -16 13 -16 -8 -33 -13 -36 -10 -3 4 11 29
32 57 20 27 34 50 30 50 -10 0 22 49 53 82 38 41 22 42 -21 1 -52 -48 -60 -33
-11 20 68 72 89 99 79 97 -24 -5 -27 1 -10 20 10 11 14 20 9 19 -5 0 -33 -26
-61 -57z"/>
<path d="M570 2246 c0 -3 32 -36 70 -72 39 -37 68 -69 66 -72 -3 -2 8 -15 25
-29 16 -14 27 -28 25 -32 -3 -4 13 -22 35 -41 22 -18 37 -35 34 -38 -2 -3 0
-11 6 -19 22 -26 -8 -12 -36 17 -16 17 -33 30 -38 30 -6 0 13 -24 41 -54 35
-37 50 -60 46 -71 -7 -16 23 -58 36 -50 4 2 22 -7 40 -20 19 -14 36 -25 38
-25 2 0 -24 31 -58 69 -66 75 -74 111 -13 65 54 -41 49 -21 -7 26 -28 23 -48
45 -45 48 2 3 15 -3 27 -13 28 -23 -46 57 -122 131 -59 58 -58 70 3 28 63 -42
50 -23 -29 44 -41 35 -74 59 -74 54 0 -5 7 -15 15 -22 9 -7 13 -15 11 -18 -3
-2 -25 13 -50 33 -26 21 -46 35 -46 31z m301 -393 c13 -16 12 -17 -3 -4 -10 7
-18 15 -18 17 0 8 8 3 21 -13z"/>
<path d="M2379 2208 c-47 -37 -52 -39 -36 -15 9 15 13 27 8 27 -5 0 -11 -3
-13 -7 -6 -14 -119 -105 -124 -101 -2 3 2 11 11 18 8 7 15 17 15 23 0 6 -16
-4 -35 -23 -19 -18 -33 -36 -30 -39 3 -2 -3 -14 -12 -25 -13 -15 -7 -13 19 7
20 15 40 27 43 27 3 0 21 11 38 24 75 54 59 28 -41 -71 -59 -59 -99 -101 -89
-93 14 10 20 11 30 1 7 -7 7 -11 1 -9 -10 3 -84 -56 -84 -68 0 -3 16 6 35 20
19 15 35 22 35 16 0 -6 6 -8 13 -4 14 8 -19 -31 -83 -99 -40 -43 -34 -57 10
-20 8 7 18 12 21 11 9 -4 49 33 49 45 0 5 -7 3 -17 -4 -31 -26 1 22 57 84 53
58 57 81 5 27 -29 -30 -53 -41 -38 -17 12 19 12 38 1 31 -7 -4 -8 -2 -4 4 4 6
12 9 19 6 7 -2 28 12 47 32 19 20 28 34 20 30 -8 -4 -1 5 15 20 17 15 30 32
30 37 0 5 34 40 75 78 85 77 89 90 9 27z"/>
<path d="M779 2134 c11 -15 19 -30 16 -34 -3 -4 7 -15 21 -25 24 -15 25 -15
22 2 -3 17 -61 83 -73 83 -4 0 3 -12 14 -26z"/>
<path d="M830 2125 c13 -14 21 -28 17 -31 -6 -7 75 -74 89 -74 5 0 -9 17 -30
39 -21 21 -33 40 -27 42 6 2 -8 14 -31 27 l-42 23 24 -26z"/>
<path d="M600 1903 c0 -5 32 -40 70 -78 39 -38 70 -73 70 -78 0 -4 27 -33 60
-64 33 -31 58 -58 55 -61 -3 -3 -18 6 -33 19 -58 53 -65 51 -14 -5 29 -32 50
-61 47 -64 -3 -3 18 -30 47 -59 29 -29 47 -53 41 -53 -7 0 -14 4 -18 10 -3 5
-11 7 -18 5 -7 -3 -33 15 -59 39 -27 24 -48 39 -48 34 0 -13 88 -111 125 -139
28 -21 28 -21 -4 14 -40 43 -33 48 15 12 27 -21 32 -22 27 -8 -6 16 -4 16 17
-2 18 -15 15 -9 -9 23 -18 23 -34 49 -35 57 -1 9 -22 36 -46 60 -53 54 -47 57
20 9 27 -20 50 -34 50 -32 0 2 -35 40 -77 84 -43 44 -96 100 -118 124 -37 40
-38 42 -10 25 17 -10 56 -38 88 -63 32 -24 60 -42 63 -40 8 9 -59 79 -72 74
-7 -3 -34 15 -61 39 -26 24 -50 40 -51 34 -2 -5 -30 14 -63 42 -32 28 -59 47
-59 42z"/>
<path d="M2341 1860 c-30 -27 -57 -47 -61 -45 -4 2 -25 -11 -48 -30 -22 -19
-48 -35 -58 -35 -19 0 -77 -56 -72 -70 2 -5 35 16 73 45 84 65 111 71 52 12
-178 -180 -212 -222 -126 -155 44 33 45 34 45 9 0 -11 -4 -17 -8 -15 -11 7
-58 -37 -58 -55 0 -8 -18 -37 -41 -63 -40 -48 -41 -49 -14 -44 39 7 67 36 61
61 -4 16 5 32 34 60 21 21 37 41 35 45 -2 4 16 26 40 50 58 57 58 73 0 26 -67
-56 -54 -27 16 34 33 29 57 55 54 58 -3 3 29 41 72 84 86 86 89 105 4 28z
m-261 -390 c0 -5 -5 -10 -11 -10 -5 0 -7 5 -4 10 3 6 8 10 11 10 2 0 4 -4 4
-10z"/>
<path d="M770 1835 c0 -14 52 -65 66 -65 7 0 36 -19 66 -42 78 -61 85 -65 62
-38 -12 14 -25 32 -29 40 -8 13 -6 13 11 1 10 -7 2 3 -18 23 -21 20 -43 36
-50 36 -8 0 -9 -3 -3 -8 6 -4 17 -16 25 -27 13 -17 11 -16 -17 4 -18 12 -33
27 -33 32 0 6 -5 7 -11 3 -6 -3 -24 6 -40 22 -16 15 -29 24 -29 19z"/>
<path d="M2201 1814 c-17 -14 -31 -22 -31 -18 0 4 -16 -7 -35 -26 -38 -37 -49
-31 -13 7 l22 23 -31 -15 c-29 -14 -40 -28 -41 -48 0 -5 -13 -23 -29 -39 -32
-36 -18 -29 49 21 25 20 64 46 85 59 22 13 45 32 51 43 16 26 9 24 -27 -7z"/>
<path d="M2220 1620 c-9 -6 -10 -10 -3 -10 6 0 15 5 18 10 8 12 4 12 -15 0z"/>
<path d="M657 1542 c3 -10 49 -58 102 -109 69 -67 89 -90 71 -86 -14 3 -42 19
-63 36 -21 16 -40 27 -43 24 -11 -10 78 -72 109 -75 17 -2 50 -15 74 -29 61
-36 52 -15 -13 30 -31 22 -53 41 -50 44 3 3 -23 28 -57 55 -79 64 -94 87 -35
57 23 -13 60 -31 81 -41 l38 -17 -20 28 c-11 15 -28 34 -38 41 -15 12 -16 12
-5 0 29 -33 7 -29 -72 13 -60 32 -83 40 -79 29z"/>
<path d="M2266 1513 c-44 -24 -81 -43 -83 -43 -2 0 1 10 7 23 6 12 -5 4 -24
-18 -19 -22 -34 -41 -32 -42 2 -2 37 15 79 36 57 29 74 35 67 22 -5 -10 -19
-25 -32 -33 -13 -8 -48 -39 -79 -69 -30 -30 -71 -67 -90 -82 l-34 -28 44 21
c24 12 56 24 70 26 l26 5 -30 -25 c-48 -38 -81 -68 -68 -62 13 7 12 -19 -2
-31 -4 -4 -5 -2 -1 5 12 21 1 13 -30 -20 -28 -32 -28 -32 -1 -9 27 24 38 17
15 -9 -7 -7 3 -1 22 15 19 15 34 34 32 42 -3 14 132 153 149 153 5 0 9 5 9 10
0 6 -19 -2 -42 -18 -95 -65 -94 -45 2 49 52 52 98 93 102 91 10 -4 17 13 10
24 -4 6 -39 -7 -86 -33z"/>
<path d="M2145 1504 c-27 -24 -46 -44 -41 -44 6 0 -6 -16 -25 -36 -26 -29 -28
-33 -9 -21 27 17 135 136 129 142 -2 2 -26 -17 -54 -41z"/>
<path d="M585 1370 c22 -22 45 -38 52 -36 8 3 10 -1 6 -11 -5 -13 -2 -15 11
-10 9 4 27 0 40 -8 12 -8 25 -13 28 -9 3 3 9 0 14 -7 5 -8 3 -10 -6 -4 -8 5
-11 4 -6 -3 4 -6 14 -8 23 -5 10 4 14 2 10 -4 -3 -5 0 -10 7 -10 6 0 41 -19
77 -43 l64 -43 -35 38 c-19 21 -29 34 -21 30 10 -6 12 -4 7 4 -5 7 -15 10 -23
7 -8 -3 -11 -1 -8 4 6 10 -86 102 -94 94 -3 -2 13 -22 34 -44 38 -39 46 -66 9
-32 -50 46 -114 93 -114 85 0 -5 5 -14 12 -21 25 -25 -5 -10 -57 28 -69 51
-80 51 -30 0z"/>
<path d="M2387 1369 c-31 -22 -57 -43 -57 -45 0 -3 5 -2 10 1 23 14 6 -8 -47
-63 -156 -157 -230 -240 -211 -237 21 4 89 60 82 68 -3 2 18 23 45 46 28 24
49 46 48 50 -1 5 42 56 96 115 54 58 97 106 95 106 -2 0 -29 -18 -61 -41z"/>
<path d="M2277 1317 c-37 -33 -69 -58 -72 -55 -2 2 13 24 34 49 22 24 38 46
36 48 -3 2 -31 -23 -65 -54 -33 -32 -58 -61 -55 -63 3 -3 -5 -17 -17 -30 -19
-21 -15 -20 26 8 28 19 57 34 67 35 22 2 80 51 102 88 10 16 17 31 15 32 -2 2
-33 -24 -71 -58z m-7 -31 c0 -2 -8 -10 -17 -17 -16 -13 -17 -12 -4 4 13 16 21
21 21 13z"/>
<path d="M852 1284 c18 -20 32 -42 30 -48 -1 -7 12 -25 29 -42 21 -20 28 -23
23 -10 -7 18 -6 18 19 1 38 -24 34 -11 -5 16 -17 13 -28 16 -23 8 5 -8 5 -11
-1 -6 -5 5 -9 12 -9 15 0 4 -4 13 -9 20 -7 12 -4 12 15 2 28 -15 20 -6 -42 43
-58 47 -69 47 -27 1z"/>
<path d="M657 1304 c-4 -4 16 -32 45 -61 29 -29 49 -53 45 -53 -4 0 31 -38 79
-85 47 -47 91 -82 97 -78 6 4 -9 23 -36 47 -26 23 -47 44 -47 48 0 14 -175
189 -183 182z"/>
<path d="M730 1151 c0 -6 3 -11 8 -11 10 -1 138 -120 127 -120 -4 0 -24 12
-43 27 -20 15 -32 21 -28 15 10 -17 1 -15 -53 12 -35 18 -48 21 -48 11 0 -12
43 -37 64 -37 4 0 30 -9 56 -19 27 -11 53 -16 59 -13 5 4 -11 28 -39 56 -57
58 -103 94 -103 79z"/>
<path d="M2220 1120 c-18 -17 -31 -32 -29 -34 2 -3 21 11 41 30 21 19 34 34
29 34 -5 0 -23 -14 -41 -30z"/>
<path d="M717 1117 c62 -50 64 -51 58 -36 -5 13 -68 59 -81 59 -3 0 7 -10 23
-23z"/>
<path d="M2245 1099 c-19 -17 -32 -35 -29 -40 3 -5 -1 -7 -8 -4 -7 2 -26 -7
-43 -21 l-30 -24 45 16 c25 9 52 17 60 18 26 4 69 28 74 42 7 19 -4 17 -39 -6
-39 -26 -69 -26 -35 0 14 10 34 26 45 34 11 8 15 16 8 16 -7 0 -28 -14 -48
-31z"/>
<path d="M632 1086 c21 -12 36 -25 33 -28 -3 -3 16 -22 44 -42 27 -20 51 -40
53 -44 2 -4 24 -23 51 -42 56 -40 62 -59 10 -32 -37 19 -88 42 -108 50 -5 2 6
-11 25 -27 19 -17 40 -29 47 -27 7 3 10 -2 8 -14 -2 -10 5 -26 16 -35 10 -10
17 -21 14 -24 -2 -4 13 -15 33 -25 20 -10 45 -23 55 -28 11 -5 21 -7 24 -5 3
3 -5 10 -16 17 -12 6 -19 15 -16 19 2 5 -3 8 -12 7 -10 0 -18 4 -18 11 0 6 -4
15 -9 20 -5 5 -6 2 -1 -6 5 -9 3 -12 -6 -9 -8 3 -14 11 -14 18 0 8 -9 17 -20
20 -11 3 -21 11 -23 18 -4 19 31 8 91 -28 32 -20 47 -25 47 -16 0 8 -12 22
-27 31 -14 10 -51 41 -82 70 -100 94 -114 105 -137 111 -13 3 -21 12 -20 22 2
11 -8 22 -27 30 -47 20 -55 13 -15 -12z"/>
<path d="M2358 1098 c-25 -9 -32 -19 -29 -40 0 -4 -9 -10 -22 -14 -12 -3 -60
-41 -107 -83 -47 -42 -98 -86 -113 -98 -15 -12 -24 -24 -20 -26 10 -6 85 38
78 45 -3 3 13 20 37 39 24 18 48 39 55 46 6 8 35 32 64 54 29 21 46 39 38 39
-8 0 4 11 26 25 42 25 39 30 -7 13z"/>
<path d="M2145 1044 l-30 -26 33 22 c17 12 32 23 32 26 0 7 -4 5 -35 -22z"/>
<path d="M2260 935 c-14 -8 -32 -15 -40 -15 -8 0 -26 -10 -40 -21 l-25 -20 25
6 25 6 -23 -20 c-13 -11 -36 -30 -50 -42 l-27 -21 29 17 c46 27 22 1 -28 -30
-25 -16 -44 -31 -42 -33 2 -2 16 4 30 13 14 10 26 14 26 11 0 -4 14 1 30 11
26 15 38 33 46 66 1 4 3 10 4 15 1 4 2 11 1 15 -1 5 3 5 9 2 9 -6 90 40 90 51
0 7 -15 3 -40 -11z"/>
<path d="M665 892 c22 -15 60 -47 85 -70 25 -24 64 -60 88 -79 29 -25 40 -39
33 -46 -7 -7 1 -19 27 -36 20 -14 37 -23 37 -21 0 3 11 -3 25 -13 44 -31 44
-18 0 22 -24 21 -50 37 -57 34 -8 -3 -13 -2 -12 3 1 5 0 12 -1 17 -1 4 -3 11
-4 17 0 5 -32 36 -69 70 -37 33 -64 60 -60 60 8 0 -7 10 -75 48 -56 30 -65 28
-17 -6z"/>
<path d="M2298 886 c-32 -18 -61 -36 -65 -41 -5 -4 -1 -4 7 0 22 12 -27 -36
-85 -84 -27 -23 -50 -45 -50 -49 0 -10 -28 -38 -73 -74 -36 -29 -36 -36 1 -16
12 7 27 13 34 14 6 1 28 14 49 28 35 23 36 26 15 26 -20 0 -14 9 45 63 38 34
79 72 92 85 13 13 41 35 63 49 21 14 39 27 39 29 0 9 -19 1 -72 -30z"/>
<path d="M800 710 c30 -36 76 -86 103 -111 26 -25 47 -50 47 -56 0 -10 79 -57
86 -51 2 3 -16 19 -41 37 -25 18 -45 37 -45 42 0 6 -25 33 -55 61 -30 28 -52
54 -50 58 4 7 -51 55 -85 75 -8 5 10 -20 40 -55z"/>
<path d="M2200 734 c-25 -20 -45 -40 -45 -45 0 -5 -42 -52 -93 -104 -84 -87
-90 -94 -53 -75 23 11 41 24 41 28 0 4 18 8 40 9 26 0 58 12 90 33 62 40 58
53 -5 16 -25 -15 -49 -25 -54 -22 -4 3 -17 -1 -27 -9 -49 -37 -28 -6 60 86 81
85 108 119 94 119 -2 0 -23 -16 -48 -36z"/>
<path d="M810 589 c41 -30 88 -49 120 -49 8 0 2 9 -14 19 -17 11 -33 18 -38
15 -4 -3 -27 6 -51 20 -60 36 -69 33 -17 -5z"/>
<path d="M759 568 c47 -31 206 -181 203 -191 -3 -9 38 -46 52 -47 5 0 3 7 -4
15 -7 8 -9 15 -4 15 5 0 0 7 -11 16 -11 8 -20 19 -20 24 0 5 -15 21 -34 35
-19 14 -31 25 -26 25 5 0 -10 14 -33 31 -46 33 -51 41 -24 33 9 -3 -12 11 -48
30 -74 40 -102 47 -51 14z"/>
<path d="M2216 569 c-21 -12 -62 -44 -90 -72 -28 -29 -63 -62 -79 -74 -19 -14
-24 -23 -17 -28 11 -7 64 38 135 111 11 12 39 34 63 49 62 41 55 49 -12 14z"/>
<path d="M880 520 c0 -6 10 -15 23 -20 12 -5 33 -18 47 -27 16 -12 21 -13 15
-4 -6 10 -4 13 6 9 8 -3 23 -9 34 -13 16 -6 17 -5 5 4 -24 19 -90 52 -90 46 0
-3 -9 -1 -20 5 -14 8 -20 8 -20 0z"/>
<path d="M2108 524 c-4 -3 -12 -7 -20 -8 -21 -3 -88 -37 -94 -48 -4 -6 3 -5
14 1 27 14 35 14 26 -1 -4 -6 10 -1 32 12 48 29 59 38 53 45 -3 3 -8 2 -11 -1z"/>
<path d="M800 456 c0 -10 110 -74 115 -67 3 5 -14 20 -37 33 -43 25 -78 40
-78 34z"/>
<path d="M2131 424 c-36 -20 -74 -37 -85 -38 -35 -4 -62 -23 -63 -45 l-2 -22
29 21 c16 12 32 25 35 30 4 6 14 10 23 10 13 -1 11 -5 -9 -23 -14 -12 -35 -27
-45 -33 -18 -11 -18 -11 1 -9 11 1 30 7 43 13 12 7 22 10 22 7 0 -3 17 3 39
14 21 11 41 18 44 15 6 -6 92 50 102 67 4 6 -20 -4 -54 -20 -33 -17 -66 -31
-74 -31 -7 0 -23 -9 -35 -20 -17 -16 -22 -17 -22 -6 0 8 27 34 60 56 51 35 69
50 58 50 -2 0 -32 -16 -67 -36z"/>
<path d="M730 437 c0 -12 102 -77 111 -71 5 3 21 -1 34 -10 13 -9 32 -16 41
-16 10 0 26 -7 36 -17 15 -14 18 -14 18 -1 0 20 -42 57 -47 41 -3 -8 -11 -8
-31 2 -22 10 -63 30 -154 73 -5 2 -8 1 -8 -1z"/>
<path d="M863 338 c17 -12 24 -23 18 -27 -6 -4 21 -24 59 -45 39 -20 70 -40
70 -43 0 -3 -16 -3 -35 0 -21 3 -33 2 -30 -4 4 -5 15 -9 25 -9 11 0 40 -7 65
-16 26 -8 52 -13 58 -11 7 3 -3 8 -20 12 -18 4 -31 11 -28 15 2 4 -7 13 -20
20 -14 7 -25 17 -25 21 0 4 -17 18 -37 30 -21 12 -54 35 -74 51 -20 15 -41 28
-45 28 -5 0 4 -10 19 -22z"/>
<path d="M2080 305 c-41 -30 -88 -64 -105 -75 -16 -11 -25 -20 -20 -21 6 0 -6
-7 -25 -14 -49 -19 -18 -18 49 1 83 24 104 35 56 28 -38 -5 -39 -5 -20 11 11
9 46 30 78 46 31 16 57 32 57 34 0 3 -9 1 -19 -5 -36 -19 -36 -10 -1 20 54 46
33 35 -50 -25z"/>
</g>
</svg>
