<?xml version="1.0" standalone="no"?>
<!DOCTYPE svg PUBLIC "-//W3C//DTD SVG 20010904//EN"
 "http://www.w3.org/TR/2001/REC-SVG-20010904/DTD/svg10.dtd">
<svg version="1.0" xmlns="http://www.w3.org/2000/svg"
 width="300.000000pt" height="413.000000pt" viewBox="0 0 300.000000 413.000000"
 preserveAspectRatio="xMidYMid meet">
<metadata>
Created by potrace 1.10, written by Peter Selinger 2001-2011
</metadata>
<g transform="translate(0.000000,413.000000) scale(0.100000,-0.100000)"
fill="#ffff00" stroke="none">
<path d="M1486 3964 c-3 -9 -6 -26 -6 -38 0 -33 -20 -87 -30 -81 -11 7 -23
-32 -15 -46 5 -7 12 -2 19 13 7 12 18 22 24 21 6 -2 9 4 6 12 -4 8 3 23 14 33
15 13 18 26 15 60 -5 43 -16 54 -27 26z"/>
<path d="M1520 3880 c-9 -42 -10 -90 -1 -90 7 0 9 11 6 28 l-6 27 17 -22 c9
-13 22 -23 28 -23 7 0 7 3 1 8 -6 4 -18 23 -27 42 -9 19 -17 33 -18 30z"/>
<path d="M1367 3853 c-14 -13 -7 -81 8 -87 8 -3 15 -1 15 4 0 6 5 10 10 10 6
0 10 -7 10 -16 0 -9 5 -12 12 -8 8 5 5 13 -10 25 -12 9 -22 25 -22 36 0 23
-14 45 -23 36z"/>
<path d="M1611 3841 c-14 -25 -14 -61 0 -61 5 0 8 -3 6 -7 -3 -5 3 -16 13 -26
17 -17 17 -16 10 23 -4 23 -6 50 -3 60 7 26 -14 34 -26 11z"/>
<path d="M1767 3833 c-3 -10 -8 -31 -12 -47 -3 -15 -13 -35 -20 -43 -8 -8 -15
-24 -15 -36 1 -22 1 -22 13 -2 21 35 32 25 30 -28 -1 -43 0 -47 6 -22 7 26 9
22 10 -27 1 -80 14 -110 46 -105 30 4 39 12 30 28 -6 8 -10 7 -17 -5 -12 -21
-38 -21 -39 2 -3 59 -8 214 -8 255 0 46 -15 64 -24 30z"/>
<path d="M1211 3774 c-1 -36 -2 -69 -3 -73 -3 -25 5 -39 25 -43 20 -4 23 -1
19 19 -2 13 -9 23 -14 23 -5 0 -7 -4 -3 -9 3 -5 1 -12 -5 -16 -6 -4 -10 4 -10
19 0 14 5 28 10 31 6 3 10 2 10 -3 0 -5 6 -9 14 -9 11 0 11 4 0 26 -8 14 -14
35 -14 46 0 11 -7 28 -14 37 -11 16 -13 9 -15 -48z"/>
<path d="M1471 3804 c0 -11 3 -14 6 -6 3 7 2 16 -1 19 -3 4 -6 -2 -5 -13z"/>
<path d="M1663 3777 c-9 -19 -6 -30 13 -63 15 -23 22 -48 19 -61 -3 -12 -1
-25 5 -28 5 -3 7 0 4 8 -3 8 -1 18 5 21 7 4 3 20 -10 42 -11 20 -17 44 -14 55
4 10 2 26 -3 34 -7 14 -10 12 -19 -8z"/>
<path d="M1308 3771 c0 -3 -2 -17 -3 -31 -1 -14 -5 -36 -8 -50 -5 -18 -3 -16
8 7 8 17 19 34 25 38 16 10 12 42 -5 42 -8 0 -16 -3 -17 -6z"/>
<path d="M1530 3771 c0 -6 4 -13 10 -16 6 -3 7 1 4 9 -7 18 -14 21 -14 7z"/>
<path d="M1611 3734 c0 -11 3 -14 6 -6 3 7 2 16 -1 19 -3 4 -6 -2 -5 -13z"/>
<path d="M1575 3720 c3 -5 8 -10 11 -10 2 0 4 5 4 10 0 6 -5 10 -11 10 -5 0
-7 -4 -4 -10z"/>
<path d="M1446 3693 c-6 -14 -5 -15 5 -6 7 7 10 15 7 18 -3 3 -9 -2 -12 -12z"/>
<path d="M952 3648 c13 -82 30 -142 42 -150 7 -5 4 -8 -6 -8 -10 0 -18 -2 -18
-4 0 -17 72 -156 81 -156 5 0 7 -5 3 -12 -5 -7 -3 -8 6 -3 10 6 10 11 -3 20
-10 7 -17 19 -17 28 0 9 -4 19 -10 22 -5 3 -10 19 -10 35 0 16 -4 32 -10 35
-15 9 -12 35 4 35 8 0 21 -17 29 -37 10 -24 16 -31 16 -19 1 26 -21 88 -35
101 -6 6 -20 32 -29 58 -10 26 -22 50 -26 53 -5 3 -9 16 -9 30 0 13 -4 24 -9
24 -4 0 -4 -23 1 -52z m68 -133 c0 -8 -4 -15 -10 -15 -5 0 -10 7 -10 15 0 8 5
15 10 15 6 0 10 -7 10 -15z"/>
<path d="M1268 3675 c2 -14 6 -25 8 -25 2 0 4 11 4 25 0 14 -4 25 -9 25 -4 0
-6 -11 -3 -25z"/>
<path d="M2021 3646 c-11 -31 -36 -87 -55 -126 -19 -38 -31 -70 -26 -70 5 0
12 9 15 20 11 35 22 22 23 -27 0 -35 -5 -53 -19 -66 -10 -10 -19 -25 -18 -35
0 -13 3 -11 9 6 5 12 16 22 24 22 13 0 27 32 31 70 1 9 7 26 14 38 7 12 9 27
6 32 -3 5 -1 28 5 50 5 22 15 59 21 81 17 67 -5 71 -30 5z m-20 -130 c5 3 9
-2 9 -11 0 -23 -24 -13 -27 11 -2 10 0 13 3 6 3 -6 10 -10 15 -6z m-10 -63
c-12 -20 -14 -14 -5 12 4 9 9 14 11 11 3 -2 0 -13 -6 -23z"/>
<path d="M1316 3663 c-6 -14 -5 -15 5 -6 7 7 10 15 7 18 -3 3 -9 -2 -12 -12z"/>
<path d="M1200 3590 c0 -60 0 -60 -29 -60 -16 0 -31 -6 -35 -15 -3 -8 -1 -15
4 -15 6 0 10 5 10 12 0 6 7 3 15 -8 10 -12 14 -14 13 -5 -2 8 5 17 14 19 13 2
16 -1 12 -12 -4 -9 -1 -16 6 -16 8 0 9 10 5 31 -5 21 -4 29 3 25 7 -4 10 7 7
31 -1 21 -3 46 -4 56 -1 9 -5 17 -11 17 -6 0 -10 -27 -10 -60z"/>
<path d="M1430 3645 c0 -5 4 -16 9 -24 8 -12 12 -12 26 3 10 9 14 20 11 24 -4
3 -11 0 -17 -8 -8 -13 -10 -13 -19 0 -5 8 -10 11 -10 5z"/>
<path d="M1270 3634 c0 -1 6 -7 14 -13 10 -9 15 -8 19 2 3 8 -3 13 -14 13 -11
0 -19 -1 -19 -2z"/>
<path d="M1738 3585 c-3 -14 -1 -25 3 -25 5 0 9 11 9 25 0 14 -2 25 -4 25 -2
0 -6 -11 -8 -25z"/>
<path d="M1086 3561 c-4 -6 -4 -21 -1 -32 6 -17 9 -19 16 -8 7 11 9 11 9 -3 0
-9 -4 -20 -10 -23 -5 -3 -10 -11 -10 -17 0 -6 3 -8 7 -4 4 3 13 -4 21 -16 9
-15 11 -17 8 -5 -3 10 -6 33 -6 51 0 37 -23 76 -34 57z"/>
<path d="M1888 3540 c-17 -29 -17 -31 2 -50 20 -20 20 -20 19 3 0 12 3 34 7
50 9 36 -7 34 -28 -3z"/>
<path d="M1150 3481 c0 -5 7 -12 16 -15 14 -5 15 -4 4 9 -14 17 -20 19 -20 6z"/>
<path d="M1091 3434 c0 -11 3 -14 6 -6 3 7 2 16 -1 19 -3 4 -6 -2 -5 -13z"/>
<path d="M1872 3415 c0 -16 2 -22 5 -12 2 9 2 23 0 30 -3 6 -5 -1 -5 -18z"/>
<path d="M1131 3414 c0 -11 3 -14 6 -6 3 7 2 16 -1 19 -3 4 -6 -2 -5 -13z"/>
<path d="M1796 3375 c-3 -8 -1 -15 4 -15 6 0 10 7 10 15 0 8 -2 15 -4 15 -2 0
-6 -7 -10 -15z"/>
<path d="M1071 3375 c0 -5 6 -18 13 -28 12 -16 14 -16 20 -2 3 9 2 13 -3 10
-6 -3 -14 3 -20 12 -6 10 -10 14 -10 8z"/>
<path d="M1833 3342 c-9 -15 -8 -19 3 -19 8 0 14 9 14 19 0 10 -1 18 -3 18 -1
0 -7 -8 -14 -18z"/>
<path d="M1957 3313 c-15 -29 -16 -38 -5 -44 10 -7 10 -9 -2 -10 -8 -1 -19 -1
-23 0 -5 1 -6 -3 -2 -9 3 -6 11 -7 17 -4 8 5 9 1 5 -10 -4 -10 -7 -29 -7 -42
0 -14 -5 -23 -12 -21 -7 1 -12 -6 -10 -16 2 -9 -1 -33 -7 -52 -5 -19 -6 -35
-1 -35 11 0 23 76 15 92 -4 7 1 4 9 -6 17 -21 20 -15 16 31 0 12 6 35 14 52
10 18 12 32 6 36 -6 3 1 18 15 33 29 32 31 42 8 42 -10 0 -26 -16 -36 -37z"/>
<path d="M995 3331 c-3 -6 2 -23 12 -37 20 -32 53 -121 53 -146 0 -9 5 -20 11
-24 8 -5 10 1 7 20 -4 20 -2 26 8 22 15 -6 8 23 -10 39 -20 18 -42 49 -28 41
16 -10 15 8 -2 43 -19 36 -42 55 -51 42z"/>
<path d="M1820 3295 c0 -8 -5 -14 -12 -12 -6 1 -14 -6 -16 -15 -2 -11 2 -18
11 -18 8 0 17 8 21 18 3 9 9 23 12 30 3 6 1 12 -5 12 -6 0 -11 -7 -11 -15z"/>
<path d="M1071 3254 c0 -11 3 -14 6 -6 3 7 2 16 -1 19 -3 4 -6 -2 -5 -13z"/>
<path d="M1913 3218 c1 -16 5 -28 9 -28 10 0 9 9 -2 35 -8 17 -8 16 -7 -7z"/>
<path d="M1091 3142 c-1 -7 4 -22 9 -33 7 -11 7 -19 1 -19 -5 0 -11 6 -14 13
-3 6 -4 2 -4 -10 1 -18 4 -20 19 -12 13 7 16 15 9 27 -4 9 -11 24 -14 32 -4
10 -6 11 -6 2z"/>
<path d="M2026 3101 c-10 -22 -15 -44 -11 -50 3 -6 1 -10 -6 -9 -6 2 -13 -3
-14 -10 -2 -7 -1 -8 1 -3 3 6 12 7 20 4 17 -6 10 -37 -15 -68 -8 -11 -12 -17
-7 -13 5 4 16 2 24 -5 13 -10 14 -9 8 1 -4 7 -2 20 5 28 7 8 13 34 15 57 2 23
6 57 10 75 9 44 -7 40 -30 -7z"/>
<path d="M940 3124 c0 -11 21 -76 31 -96 6 -11 5 -18 0 -18 -6 0 -4 -12 4 -26
7 -15 11 -34 7 -43 -5 -14 -4 -14 9 -1 13 13 15 33 10 83 -1 4 -8 7 -16 7 -12
0 -13 4 -4 18 9 14 8 25 -2 47 -13 27 -39 46 -39 29z"/>
<path d="M1018 3112 c-6 -21 1 -42 13 -42 12 0 12 47 0 54 -5 3 -11 -2 -13
-12z"/>
<path d="M1947 3101 c-9 -16 -17 -33 -17 -38 1 -4 7 3 15 17 9 15 15 19 15 10
0 -11 3 -11 11 3 7 11 7 23 2 28 -5 5 -16 -3 -26 -20z"/>
<path d="M1045 3060 c-3 -5 -1 -10 4 -10 6 0 11 5 11 10 0 6 -2 10 -4 10 -3 0
-8 -4 -11 -10z"/>
<path d="M1960 3060 c0 -5 5 -10 10 -10 6 0 10 5 10 10 0 6 -4 10 -10 10 -5 0
-10 -4 -10 -10z"/>
<path d="M1075 3050 c-3 -5 -1 -10 4 -10 6 0 11 5 11 10 0 6 -2 10 -4 10 -3 0
-8 -4 -11 -10z"/>
<path d="M1025 3025 c7 -31 12 -41 19 -34 2 2 -3 18 -11 34 l-14 30 6 -30z"/>
<path d="M1921 3034 c0 -11 3 -14 6 -6 3 7 2 16 -1 19 -3 4 -6 -2 -5 -13z"/>
<path d="M2104 2934 c-21 -26 -45 -58 -53 -73 l-13 -26 22 24 c21 21 24 22 32
7 6 -11 6 -22 -2 -31 -6 -8 -9 -19 -5 -25 3 -5 2 -10 -3 -10 -6 0 -12 -19 -15
-42 -3 -24 -7 -58 -10 -75 -4 -19 -2 -33 4 -33 6 0 7 -5 4 -11 -5 -6 -13 -3
-22 10 -8 12 -11 26 -7 33 5 7 3 8 -5 4 -7 -5 -9 -15 -6 -25 4 -9 8 -23 9 -30
3 -19 22 -25 31 -11 10 17 13 70 3 70 -4 0 -4 9 2 20 5 11 15 29 20 40 6 12 8
25 5 30 -3 5 0 20 7 32 7 13 13 28 13 33 1 6 9 36 19 68 11 31 17 60 14 62 -3
3 -22 -16 -44 -41z"/>
<path d="M1913 2955 c0 -8 4 -12 9 -9 5 3 6 10 3 15 -9 13 -12 11 -12 -6z"/>
<path d="M854 2945 c6 -35 28 -85 37 -85 4 0 13 -10 19 -22 10 -21 10 -21 -3
-5 -8 9 -19 17 -25 17 -11 0 45 -92 60 -98 4 -2 8 -8 8 -13 0 -6 -4 -8 -9 -5
-5 3 -8 -7 -7 -22 1 -32 29 -75 41 -64 4 4 5 -4 2 -17 -4 -17 -3 -21 5 -13 13
13 -9 75 -23 66 -5 -3 -9 0 -9 5 0 6 4 11 8 11 11 0 6 53 -7 79 -7 11 -16 21
-21 21 -5 0 -9 8 -9 18 -1 43 -15 83 -42 114 -22 25 -28 28 -25 13z"/>
<path d="M1846 2942 c-3 -5 1 -9 9 -9 8 0 12 4 9 9 -3 4 -7 8 -9 8 -2 0 -6 -4
-9 -8z"/>
<path d="M943 2925 c-10 -10 -9 -16 2 -25 13 -10 15 -8 15 14 0 30 -1 30 -17
11z"/>
<path d="M1006 2911 c4 -23 2 -36 -7 -42 -11 -7 -11 -9 -1 -9 19 0 25 26 13
57 -10 27 -11 27 -5 -6z"/>
<path d="M2031 2922 c-5 -10 -6 -24 -2 -30 5 -9 11 -5 19 13 14 31 15 35 2 35
-5 0 -14 -8 -19 -18z"/>
<path d="M1885 2910 c-10 -11 -22 -17 -28 -13 -5 3 -7 1 -3 -5 3 -5 1 -12 -6
-14 -7 -3 -8 -7 -3 -10 6 -3 23 10 38 28 31 36 32 47 2 14z"/>
<path d="M1195 2910 c-11 -17 14 -67 42 -85 30 -20 44 -8 28 23 -10 19 -13 21
-19 7 -9 -24 -26 -8 -26 25 0 31 -14 47 -25 30z"/>
<path d="M1819 2903 c-13 -17 -13 -17 6 -3 11 8 22 16 24 17 2 2 0 3 -6 3 -6
0 -17 -8 -24 -17z"/>
<path d="M1981 2894 c0 -11 3 -14 6 -6 3 7 2 16 -1 19 -3 4 -6 -2 -5 -13z"/>
<path d="M1793 2868 c-6 -7 -16 -23 -22 -35 -17 -34 12 -31 34 3 18 28 7 56
-12 32z"/>
<path d="M1992 2844 c-1 -13 0 -24 2 -24 7 0 14 40 7 44 -4 3 -8 -6 -9 -20z"/>
<path d="M950 2826 c0 -2 7 -7 16 -10 8 -3 12 -2 9 4 -6 10 -25 14 -25 6z"/>
<path d="M2056 2805 c-9 -26 -7 -32 5 -12 6 10 9 21 6 23 -2 3 -7 -2 -11 -11z"/>
<path d="M2030 2731 c0 -6 4 -13 10 -16 6 -3 7 1 4 9 -7 18 -14 21 -14 7z"/>
<path d="M740 2679 c0 -7 6 -20 13 -28 24 -29 38 -71 24 -71 -8 -1 -6 -5 4
-13 27 -21 51 -65 45 -85 -3 -10 0 -26 7 -37 13 -16 14 -13 13 26 -1 29 -10
55 -25 76 -30 41 -24 61 10 34 14 -11 39 -22 55 -25 16 -3 30 -10 32 -15 2 -6
10 -7 18 -4 11 4 9 9 -8 23 -12 10 -28 16 -34 13 -7 -2 -15 1 -19 7 -6 9 -9 9
-15 0 -6 -9 -10 -7 -14 8 -4 12 -15 24 -25 27 -10 3 -24 17 -32 31 -15 30 -49
52 -49 33z"/>
<path d="M2212 2656 c-17 -20 -38 -36 -47 -36 -8 0 -15 -4 -15 -10 0 -5 -9
-10 -19 -10 -11 0 -23 -4 -26 -10 -8 -13 7 -13 42 2 47 19 57 19 39 -1 -9 -10
-13 -21 -9 -24 3 -4 -1 -15 -10 -24 -8 -10 -16 -22 -17 -28 -1 -5 -6 -9 -12
-7 -5 1 -7 -2 -3 -8 7 -11 -19 -53 -28 -44 -10 10 -27 -34 -23 -58 3 -13 5
-25 5 -28 1 -3 12 16 25 42 13 25 37 67 55 93 17 25 31 52 31 60 0 8 5 17 10
20 6 4 9 12 8 18 -1 7 6 24 16 39 29 44 13 54 -22 14z m-107 -235 c3 -5 1 -12
-5 -16 -5 -3 -10 1 -10 9 0 18 6 21 15 7z"/>
<path d="M930 2613 c0 -32 16 -53 39 -53 11 0 9 5 -7 16 -12 8 -22 20 -22 26
0 6 6 6 15 -2 13 -11 14 -10 7 11 -13 34 -32 36 -32 2z"/>
<path d="M1930 2603 c-8 -16 -15 -31 -17 -35 -2 -4 1 -9 6 -13 13 -8 42 48 32
63 -5 8 -12 3 -21 -15z"/>
<path d="M2017 2590 c-3 -11 -1 -23 4 -26 5 -3 9 -1 9 5 0 5 3 16 6 25 3 9 2
16 -4 16 -5 0 -12 -9 -15 -20z"/>
<path d="M2060 2580 c20 -13 33 -13 25 0 -3 6 -14 10 -23 10 -15 0 -15 -2 -2
-10z"/>
<path d="M2130 2569 c0 -5 5 -7 10 -4 6 3 10 8 10 11 0 2 -4 4 -10 4 -5 0 -10
-5 -10 -11z"/>
<path d="M2017 2543 c-9 -9 -9 -43 1 -43 4 0 7 11 7 25 0 14 0 25 -1 25 0 0
-4 -3 -7 -7z"/>
<path d="M868 2533 c7 -3 16 -2 19 1 4 3 -2 6 -13 5 -11 0 -14 -3 -6 -6z"/>
<path d="M891 2521 c-8 -6 -9 -11 -3 -15 6 -3 14 -1 17 5 9 14 2 20 -14 10z"/>
<path d="M864 2476 c-9 -10 -7 -18 8 -37 17 -21 18 -21 9 -2 -6 12 -8 29 -5
37 7 19 3 20 -12 2z"/>
<path d="M2160 2413 c-21 -17 -30 -32 -27 -45 3 -10 1 -18 -3 -18 -5 0 -12 -9
-15 -21 -5 -13 -12 -18 -22 -14 -13 4 -14 3 -3 -9 10 -13 16 -12 42 12 16 16
30 35 32 43 1 8 10 29 19 47 21 39 18 40 -23 5z"/>
<path d="M800 2422 c0 -5 9 -17 20 -27 11 -10 20 -25 20 -33 0 -9 7 -24 17
-34 11 -13 12 -18 3 -18 -9 0 -10 -3 -1 -13 6 -8 8 -17 5 -20 -3 -3 1 -16 9
-28 9 -11 13 -27 11 -34 -3 -6 7 -20 21 -29 31 -20 45 -14 21 9 -9 9 -16 24
-16 33 0 9 -7 26 -15 36 -8 11 -15 33 -15 48 0 25 -16 65 -31 78 -3 3 -8 13
-12 23 -6 17 -37 24 -37 9z"/>
<path d="M914 2401 c9 -16 13 -31 9 -34 -3 -3 4 -5 15 -4 19 1 19 3 -5 34 -31
41 -38 42 -19 4z"/>
<path d="M1047 2403 c-7 -12 31 -93 43 -93 15 0 12 24 -7 65 -16 34 -27 43
-36 28z"/>
<path d="M2075 2340 c-3 -5 -1 -10 4 -10 6 0 11 5 11 10 0 6 -2 10 -4 10 -3 0
-8 -4 -11 -10z"/>
<path d="M2112 2288 c-6 -6 -12 -25 -12 -41 0 -16 -4 -26 -10 -22 -5 3 -10 -2
-11 -12 0 -10 -2 -28 -5 -40 -5 -27 11 -31 19 -5 3 9 14 35 25 57 20 43 17 86
-6 63z"/>
<path d="M900 2281 c0 -5 5 -13 10 -16 6 -3 10 -2 10 4 0 5 -4 13 -10 16 -5 3
-10 2 -10 -4z"/>
<path d="M830 2192 c0 -5 7 -15 15 -22 8 -7 13 -16 10 -20 -3 -4 2 -13 10 -20
8 -7 15 -18 15 -24 0 -7 11 -23 25 -36 13 -12 22 -26 20 -31 -3 -4 0 -11 7
-15 7 -4 10 -4 6 1 -4 4 -3 17 3 28 8 14 8 18 -1 12 -6 -4 -18 1 -25 11 -20
26 -18 39 3 23 16 -13 16 -13 0 7 -10 11 -18 25 -18 30 0 5 -16 22 -35 37 -19
15 -35 24 -35 19z"/>
<path d="M2112 2158 c-25 -32 -32 -48 -27 -67 5 -20 4 -23 -8 -13 -12 10 -13
8 -9 -13 3 -20 7 -23 18 -14 8 6 14 21 14 33 0 12 13 37 30 56 28 34 38 61 23
59 -5 0 -23 -19 -41 -41z"/>
<path d="M2233 2138 c-4 -8 -25 -27 -45 -43 -24 -19 -34 -33 -28 -40 5 -6 5
-17 0 -24 -4 -8 -6 -20 -3 -28 3 -8 0 -13 -8 -11 -8 2 -13 -2 -12 -8 1 -6 -9
-21 -22 -34 -14 -13 -21 -28 -18 -38 4 -9 2 -13 -4 -9 -7 4 -13 -7 -17 -28 -4
-19 -17 -42 -29 -52 -21 -16 -50 -72 -52 -98 -1 -5 -5 -18 -9 -27 -5 -10 -5
-26 -1 -35 5 -10 8 -29 7 -43 l-1 -25 8 25 c4 14 4 30 -2 37 -11 15 -1 47 13
38 5 -3 16 11 25 31 11 27 12 41 4 56 -8 15 -8 19 0 14 12 -8 53 53 45 66 -3
4 -1 8 4 8 13 0 33 50 26 62 -4 6 -2 8 3 5 6 -4 23 12 39 36 16 23 33 45 37
48 5 3 7 12 6 20 -2 8 10 33 25 57 16 23 26 45 23 48 -3 3 -9 -1 -14 -8z
m-212 -385 c-12 -20 -14 -14 -5 12 4 9 9 14 11 11 3 -2 0 -13 -6 -23z"/>
<path d="M750 2134 c0 -6 9 -23 21 -38 11 -15 22 -32 23 -39 1 -7 11 -27 23
-43 13 -17 20 -34 17 -37 -3 -3 4 -15 15 -26 12 -12 21 -28 21 -36 0 -8 9 -19
20 -25 11 -6 19 -16 18 -23 -2 -7 9 -28 25 -48 15 -20 27 -43 27 -52 0 -9 4
-19 10 -22 6 -3 7 1 4 9 -3 9 -1 16 6 16 6 0 10 -8 8 -17 -1 -10 1 -25 6 -33
7 -12 6 -13 -5 -2 -7 6 -20 12 -29 12 -12 -1 -11 -3 4 -15 12 -9 17 -21 13
-37 -4 -15 1 -32 14 -47 24 -29 35 -21 21 16 -5 15 -9 45 -8 67 3 39 -28 118
-36 94 -3 -7 -8 5 -12 26 -5 25 -10 35 -15 27 -6 -10 -10 -9 -14 3 -4 9 -1 16
6 17 7 0 1 4 -11 10 -13 5 -22 14 -20 20 2 7 -11 28 -29 47 -34 35 -41 52 -23
52 6 0 10 -4 10 -10 0 -5 5 -10 10 -10 6 0 21 -10 33 -23 12 -13 15 -15 7 -4
-12 15 -12 20 -1 26 8 6 9 11 3 15 -6 3 -13 0 -15 -6 -4 -10 -6 -10 -6 0 -1 6
-8 12 -16 12 -7 0 -18 6 -22 13 -17 29 -103 121 -103 111z"/>
<path d="M950 2120 c15 -13 21 -26 17 -40 -3 -11 -1 -18 4 -14 22 13 -7 74
-36 74 -4 0 2 -9 15 -20z"/>
<path d="M2046 2043 c-6 -14 -5 -15 5 -6 7 7 10 15 7 18 -3 3 -9 -2 -12 -12z"/>
<path d="M2123 2038 c-11 -19 -13 -39 -1 -32 5 3 7 8 4 12 -3 3 2 11 12 18 9
8 12 14 5 14 -6 0 -15 -6 -20 -12z"/>
<path d="M950 2020 c0 -17 17 -47 23 -40 2 3 -2 16 -10 30 -7 14 -13 18 -13
10z"/>
<path d="M2069 2003 c-13 -16 -12 -17 4 -4 9 7 17 15 17 17 0 8 -8 3 -21 -13z"/>
<path d="M933 1985 c0 -8 4 -12 9 -9 5 3 6 10 3 15 -9 13 -12 11 -12 -6z"/>
<path d="M2020 1979 c-6 -11 -10 -25 -8 -30 2 -5 8 4 15 21 13 34 9 40 -7 9z"/>
<path d="M1105 1980 c-3 -4 6 -28 20 -52 28 -49 32 -47 9 7 -9 21 -10 34 -4
30 12 -7 34 -55 32 -67 -1 -5 5 -8 14 -8 14 0 15 2 3 17 -8 9 -18 30 -24 46
-9 29 -39 45 -50 27z"/>
<path d="M2040 1960 c-6 -11 -8 -20 -6 -20 3 0 10 9 16 20 6 11 8 20 6 20 -3
0 -10 -9 -16 -20z"/>
<path d="M736 1878 c4 -7 16 -25 26 -40 10 -14 18 -31 18 -38 0 -7 9 -25 21
-41 11 -16 16 -29 10 -29 -6 0 -5 -11 4 -27 7 -16 19 -41 26 -58 16 -36 39
-65 52 -65 5 0 4 7 -3 15 -7 8 -10 15 -6 15 4 0 0 13 -9 30 -8 16 -14 32 -13
34 2 2 -5 13 -15 24 -12 13 -15 22 -8 27 16 10 14 17 -23 59 -19 21 -43 54
-53 73 -9 18 -21 33 -26 33 -4 0 -5 -6 -1 -12z"/>
<path d="M2209 1832 c-25 -32 -52 -68 -60 -80 -8 -12 -19 -22 -26 -22 -7 0
-13 -4 -13 -10 0 -5 -9 -18 -20 -28 -11 -11 -22 -29 -25 -41 -2 -11 -7 -26
-10 -31 -3 -6 -3 -10 0 -10 3 0 13 16 21 36 8 20 18 33 21 30 4 -3 11 4 18 17
6 12 19 21 28 19 10 -2 17 4 17 12 0 8 12 24 27 36 15 12 34 36 41 53 21 49
32 77 29 77 -1 0 -23 -26 -48 -58z"/>
<path d="M1149 1851 c12 -16 21 -34 21 -39 0 -14 18 -25 30 -17 5 3 7 12 4 20
-4 8 -11 12 -17 8 -6 -3 -7 -1 -3 5 10 16 -16 52 -37 52 -17 0 -17 -2 2 -29z"/>
<path d="M2035 1839 c-4 -6 -5 -12 -2 -15 2 -3 7 2 10 11 7 17 1 20 -8 4z"/>
<path d="M2171 1720 c-24 -51 -24 -50 -11 -50 6 0 10 7 10 15 0 8 3 15 8 15
14 0 30 37 22 50 -6 9 -14 0 -29 -30z"/>
<path d="M876 1688 c41 -67 46 -71 56 -56 6 10 10 10 18 -2 6 -9 10 -11 10 -3
0 7 -8 17 -19 22 -10 6 -28 26 -40 46 -11 19 -27 35 -36 35 -12 0 -10 -9 11
-42z"/>
<path d="M2131 1694 c0 -11 3 -14 6 -6 3 7 2 16 -1 19 -3 4 -6 -2 -5 -13z"/>
<path d="M2020 1675 c-10 -12 -10 -15 4 -15 9 0 16 7 16 15 0 8 -2 15 -4 15
-2 0 -9 -7 -16 -15z"/>
<path d="M686 1648 c9 -17 17 -42 19 -54 1 -13 15 -43 31 -66 16 -24 27 -47
26 -51 -1 -4 3 -17 9 -28 8 -15 7 -24 -2 -35 -10 -12 -8 -19 10 -37 11 -13 21
-34 21 -48 0 -18 3 -21 9 -10 6 9 4 28 -6 53 -8 21 -13 47 -10 58 3 11 1 23
-4 26 -5 3 -9 10 -9 17 0 8 3 8 12 -1 7 -7 16 -12 21 -12 4 0 -9 21 -31 48
-46 55 -56 79 -35 79 8 0 19 -12 24 -26 5 -15 18 -32 29 -39 16 -9 18 -9 14 2
-3 8 -1 17 5 21 6 3 9 0 5 -8 -2 -7 4 -25 16 -38 l20 -24 -9 25 c-5 14 -12 33
-15 43 -5 14 -10 16 -25 7 -14 -7 -22 -7 -26 0 -4 6 -3 10 2 9 22 -4 24 3 8
21 -10 11 -23 20 -29 20 -6 0 -27 18 -46 40 -41 48 -57 52 -34 8z"/>
<path d="M2283 1653 c-23 -22 -29 -35 -27 -61 1 -18 -4 -45 -12 -60 -8 -15
-14 -34 -14 -42 0 -20 -55 -102 -63 -94 -3 3 -3 13 0 22 4 14 3 15 -5 2 -8
-10 -8 -18 -1 -27 6 -7 8 -17 4 -23 -3 -5 -4 -10 -1 -10 3 0 13 14 21 31 22
42 30 30 11 -16 -18 -43 -21 -69 -5 -60 6 4 8 13 5 21 -3 8 0 13 6 11 11 -2
17 19 20 66 0 15 5 30 10 33 4 3 8 16 8 30 0 14 9 35 20 47 11 12 19 28 18 37
-1 8 5 26 14 40 15 23 33 80 25 80 -2 0 -17 -12 -34 -27z"/>
<path d="M2100 1646 c-5 -5 -10 -15 -10 -20 0 -6 5 -3 11 7 6 9 14 15 19 12 5
-3 11 -2 14 3 7 12 -21 11 -34 -2z"/>
<path d="M2146 1633 c-6 -14 -5 -15 5 -6 7 7 10 15 7 18 -3 3 -9 -2 -12 -12z"/>
<path d="M971 1623 c1 -4 -1 -16 -6 -26 -7 -18 0 -36 10 -25 11 11 14 48 4 54
-5 3 -9 2 -8 -3z"/>
<path d="M2014 1614 c3 -23 13 -26 18 -6 3 11 0 19 -7 19 -7 0 -12 -6 -11 -13z"/>
<path d="M2102 1590 c0 -14 2 -19 5 -12 2 6 2 18 0 25 -3 6 -5 1 -5 -13z"/>
<path d="M2137 1603 c-7 -11 10 -40 18 -31 4 4 3 14 -3 24 -5 9 -12 12 -15 7z"/>
<path d="M2223 1590 c-3 -11 -9 -18 -13 -15 -5 3 -11 1 -15 -5 -11 -18 21 -11
38 8 20 22 22 32 6 32 -6 0 -13 -9 -16 -20z"/>
<path d="M856 1572 c-3 -5 7 -20 22 -33 18 -16 21 -17 10 -4 -9 11 -17 24 -16
28 0 14 -10 19 -16 9z"/>
<path d="M2170 1547 c0 -19 16 -31 24 -18 3 5 -1 14 -9 21 -12 10 -15 10 -15
-3z"/>
<path d="M2085 1500 c1 -17 5 -33 8 -36 3 -3 4 8 3 25 -1 17 -5 33 -8 36 -3 3
-5 -8 -3 -25z"/>
<path d="M891 1497 c-1 -12 -6 -16 -13 -11 -10 5 -10 4 -1 -6 16 -17 26 -8 20
17 -4 17 -5 17 -6 0z"/>
<path d="M2159 1493 c-13 -16 -12 -17 4 -4 9 7 17 15 17 17 0 8 -8 3 -21 -13z"/>
<path d="M2200 1490 c-8 -5 -12 -12 -9 -15 4 -3 12 1 19 10 14 17 11 19 -10 5z"/>
<path d="M2151 1334 c0 -11 3 -14 6 -6 3 7 2 16 -1 19 -3 4 -6 -2 -5 -13z"/>
<path d="M1965 1313 c-14 -15 -25 -34 -25 -42 0 -8 -3 -11 -6 -8 -9 9 -74 -75
-67 -86 8 -13 54 35 49 50 -3 7 -1 12 3 10 13 -3 91 84 85 94 -8 13 -11 12
-39 -18z"/>
<path d="M825 1311 c-3 -5 -1 -12 5 -16 5 -3 10 1 10 9 0 18 -6 21 -15 7z"/>
<path d="M1055 1310 c-7 -12 12 -50 25 -50 11 0 12 6 4 38 -7 23 -19 29 -29
12z"/>
<path d="M721 1289 c5 -11 25 -29 44 -42 19 -12 35 -30 35 -39 0 -10 5 -18 11
-18 6 0 9 -6 6 -14 -6 -16 15 -37 53 -55 l25 -12 -24 20 c-13 12 -20 21 -16
21 5 0 0 10 -11 22 -12 14 -14 18 -4 13 8 -4 3 5 -12 21 -19 21 -24 34 -18 44
7 12 4 16 -12 17 -11 1 -29 10 -40 19 -28 26 -51 28 -37 3z"/>
<path d="M2235 1279 c-32 -28 -35 -29 -35 -11 0 28 -16 36 -23 12 -3 -13 -1
-18 6 -13 7 4 8 0 3 -13 -4 -10 -4 -15 0 -11 4 4 13 2 20 -4 18 -14 1 -55 -37
-93 -29 -28 -38 -56 -18 -56 5 0 8 4 5 8 -3 5 13 27 34 50 22 22 37 47 35 54
-3 8 10 32 30 55 19 23 35 44 35 47 0 14 -22 4 -55 -25z"/>
<path d="M1036 1235 c4 -8 8 -15 10 -15 2 0 4 7 4 15 0 8 -4 15 -10 15 -5 0
-7 -7 -4 -15z"/>
<path d="M1970 1229 c-10 -18 -9 -20 7 -17 10 2 19 11 21 21 5 24 -15 21 -28
-4z"/>
<path d="M861 1224 c0 -11 3 -14 6 -6 3 7 2 16 -1 19 -3 4 -6 -2 -5 -13z"/>
<path d="M1091 1215 c0 -5 6 -21 14 -35 8 -14 14 -20 14 -15 0 6 -6 21 -14 35
-8 14 -14 21 -14 15z"/>
<path d="M2175 1210 c-3 -5 -1 -10 4 -10 6 0 11 5 11 10 0 6 -2 10 -4 10 -3 0
-8 -4 -11 -10z"/>
<path d="M2143 1188 c-11 -19 -13 -39 -1 -32 5 3 7 9 4 12 -3 3 -1 11 5 19 6
7 9 13 6 13 -3 0 -9 -6 -14 -12z"/>
<path d="M1050 1170 c6 -11 12 -20 14 -20 2 0 2 9 -1 20 -3 11 -9 20 -15 20
-5 0 -4 -9 2 -20z"/>
<path d="M1066 1127 c3 -10 9 -15 12 -12 3 3 0 11 -7 18 -10 9 -11 8 -5 -6z"/>
<path d="M1090 1120 c0 -5 5 -10 11 -10 5 0 7 5 4 10 -3 6 -8 10 -11 10 -2 0
-4 -4 -4 -10z"/>
<path d="M1123 1114 c-8 -22 13 -42 29 -26 9 9 8 12 -5 12 -10 0 -14 5 -11 15
4 8 3 15 0 15 -4 0 -9 -7 -13 -16z"/>
<path d="M2240 1115 c-7 -8 -16 -13 -20 -10 -4 2 -16 -2 -26 -10 -18 -14 -18
-14 -1 -15 24 0 11 -20 -14 -20 -10 0 -19 -6 -19 -14 0 -8 -14 -26 -31 -41
-17 -14 -29 -28 -27 -30 3 -3 15 6 27 19 13 14 29 22 36 19 25 -9 117 98 95
112 -4 3 -13 -2 -20 -10z m-50 -69 c0 -2 -7 -9 -15 -16 -13 -11 -14 -10 -9 4
5 14 24 23 24 12z"/>
<path d="M730 1106 c0 -2 20 -25 45 -51 25 -25 43 -50 40 -56 -4 -5 -1 -9 4
-9 14 0 14 27 1 35 -8 5 -7 11 1 21 6 7 16 11 22 7 6 -3 7 -1 3 5 -4 7 -2 12
3 12 6 0 11 5 11 11 0 8 -5 7 -15 -1 -13 -10 -19 -10 -33 2 -9 9 -22 13 -29
11 -6 -2 -14 1 -18 6 -6 10 -35 16 -35 7z"/>
<path d="M1501 1089 c-7 -12 -10 -24 -7 -27 3 -3 6 0 6 6 0 7 7 12 15 12 9 0
12 -6 8 -17 -4 -11 -3 -14 5 -9 16 10 15 31 -1 44 -10 8 -16 6 -26 -9z"/>
<path d="M2081 1074 c0 -11 3 -14 6 -6 3 7 2 16 -1 19 -3 4 -6 -2 -5 -13z"/>
<path d="M907 1060 c-3 -11 -2 -22 2 -24 4 -3 8 6 9 20 2 29 -4 31 -11 4z"/>
<path d="M2114 1048 c12 -7 21 -7 28 0 6 6 0 10 -18 10 -23 0 -24 -2 -10 -10z"/>
<path d="M868 1043 c7 -3 16 -2 19 1 4 3 -2 6 -13 5 -11 0 -14 -3 -6 -6z"/>
<path d="M1466 1025 c-21 -32 -20 -44 3 -42 15 1 17 5 11 16 -5 9 -4 23 1 33
14 27 4 22 -15 -7z"/>
<path d="M1549 1038 c-1 -7 -1 -16 0 -20 0 -5 -6 -8 -14 -8 -8 0 -19 -9 -25
-20 -8 -16 -8 -20 4 -20 15 0 56 50 56 69 0 15 -20 14 -21 -1z"/>
<path d="M2150 997 c0 -3 7 -13 16 -22 15 -15 14 -20 -10 -66 -30 -60 -30 -59
-11 -59 8 0 15 8 15 18 0 10 11 29 25 42 26 24 34 60 13 60 -6 0 -20 7 -30 17
-10 9 -18 13 -18 10z"/>
<path d="M788 948 c-3 -7 10 -29 29 -48 18 -19 33 -40 33 -46 0 -6 7 -18 16
-25 9 -7 19 -22 23 -33 7 -17 8 -17 14 -3 4 10 -7 36 -26 64 -18 27 -38 61
-46 76 -15 28 -36 36 -43 15z"/>
<path d="M897 951 c6 -7 9 -20 6 -27 -3 -8 0 -14 6 -14 17 0 13 26 -6 41 -15
11 -16 11 -6 0z"/>
<path d="M2093 953 c4 -3 -3 -21 -14 -40 -12 -19 -19 -37 -16 -39 5 -5 47 67
47 81 0 3 -5 5 -12 5 -6 0 -8 -3 -5 -7z"/>
<path d="M866 925 c4 -8 8 -15 10 -15 2 0 4 7 4 15 0 8 -4 15 -10 15 -5 0 -7
-7 -4 -15z"/>
<path d="M935 830 c10 -11 20 -18 23 -15 7 6 -18 35 -31 35 -5 0 -2 -9 8 -20z"/>
<path d="M2120 825 c0 -8 5 -15 10 -15 6 0 10 7 10 15 0 8 -4 15 -10 15 -5 0
-10 -7 -10 -15z"/>
<path d="M2056 803 c-8 -20 9 -40 19 -22 6 8 4 10 -5 4 -9 -5 -10 -2 -5 14 8
25 0 29 -9 4z"/>
<path d="M2152 790 c-15 -12 -20 -24 -15 -36 5 -13 3 -15 -8 -9 -12 8 -12 6 0
-8 12 -15 11 -21 -10 -43 -13 -14 -24 -37 -25 -52 -1 -15 -3 -31 -3 -35 -1 -5
-5 -6 -10 -3 -18 11 -44 -21 -46 -58 -2 -43 14 -26 17 18 1 14 8 28 15 30 9 4
11 -15 6 -82 -6 -93 4 -111 12 -21 8 88 11 101 44 169 17 37 28 73 25 83 -4
11 1 23 11 31 10 7 16 18 14 24 -3 6 -13 3 -27 -8z m-34 -125 c-6 -14 -13 -23
-15 -21 -5 5 15 46 22 46 3 0 -1 -11 -7 -25z"/>
<path d="M820 786 c0 -7 14 -25 31 -39 19 -16 29 -32 26 -41 -7 -18 15 -37 31
-27 10 6 10 11 -3 21 -8 7 -15 21 -15 31 0 17 -47 69 -62 69 -5 0 -8 -6 -8
-14z"/>
<path d="M941 774 c0 -11 3 -14 6 -6 3 7 2 16 -1 19 -3 4 -6 -2 -5 -13z"/>
<path d="M2046 733 c-6 -14 -5 -15 5 -6 7 7 10 15 7 18 -3 3 -9 -2 -12 -12z"/>
<path d="M1543 713 c-20 -7 -15 -22 7 -20 20 1 27 12 13 20 -5 2 -14 2 -20 0z"/>
<path d="M1590 703 c0 -4 5 -15 10 -23 8 -13 10 -13 10 2 0 9 -4 20 -10 23 -5
3 -10 3 -10 -2z"/>
<path d="M948 685 c13 -9 26 -14 29 -11 8 8 3 12 -27 21 l-25 7 23 -17z"/>
<path d="M1516 665 c-3 -9 -6 -24 -5 -33 0 -9 5 -4 10 12 9 32 6 48 -5 21z"/>
<path d="M900 651 c0 -6 5 -13 11 -17 6 -3 9 -14 6 -24 -3 -11 1 -21 7 -23 16
-6 18 21 4 51 -11 22 -28 30 -28 13z"/>
<path d="M950 635 c0 -8 4 -15 10 -15 5 0 7 7 4 15 -4 8 -8 15 -10 15 -2 0 -4
-7 -4 -15z"/>
<path d="M1570 636 c0 -8 4 -17 9 -20 5 -4 7 3 4 14 -6 23 -13 26 -13 6z"/>
<path d="M1466 584 c-4 -9 -4 -19 -1 -22 2 -3 7 3 11 12 4 9 4 19 1 22 -2 3
-7 -3 -11 -12z"/>
<path d="M910 577 c0 -5 8 -22 17 -40 14 -26 18 -29 21 -13 2 10 -5 28 -17 39
-12 12 -21 18 -21 14z"/>
<path d="M1560 550 c7 -14 26 -41 41 -61 16 -20 29 -41 29 -46 0 -19 71 -83
113 -102 23 -11 54 -31 69 -45 28 -27 48 -33 48 -16 0 14 -91 96 -103 92 -5
-2 -19 5 -31 15 -19 16 -19 16 -7 1 7 -10 9 -18 3 -18 -12 0 -85 83 -103 118
-8 15 -27 41 -43 57 -26 28 -27 28 -16 5z"/>
<path d="M965 550 c-3 -5 -1 -10 4 -10 6 0 11 5 11 10 0 6 -2 10 -4 10 -3 0
-8 -4 -11 -10z"/>
<path d="M1497 543 c3 -7 0 -13 -6 -13 -6 0 -10 -3 -9 -7 5 -17 -34 -73 -50
-73 -10 0 -23 -5 -30 -12 -7 -7 -12 -8 -12 -2 -1 5 -7 -6 -15 -25 -19 -43 -19
-62 1 -36 14 19 14 19 11 -5 -3 -14 -11 -25 -19 -24 -10 1 -14 -7 -13 -20 2
-24 -43 -78 -57 -70 -5 4 3 19 18 35 15 16 23 29 17 29 -16 0 -93 -108 -80
-113 7 -2 19 2 27 9 8 7 32 28 53 45 47 40 58 60 66 123 6 45 9 51 29 49 12
-2 22 2 22 7 0 6 7 10 15 10 8 0 18 12 21 28 4 15 13 36 20 47 18 25 18 32 0
32 -8 0 -12 -6 -9 -14z"/>
<path d="M1600 551 c0 -6 4 -13 10 -16 6 -3 7 1 4 9 -7 18 -14 21 -14 7z"/>
<path d="M1435 530 c-3 -5 -1 -10 4 -10 6 0 11 5 11 10 0 6 -2 10 -4 10 -3 0
-8 -4 -11 -10z"/>
<path d="M1394 484 c-6 -19 -8 -34 -3 -34 8 0 24 59 17 65 -2 2 -8 -12 -14
-31z"/>
<path d="M940 498 c0 -17 23 -55 41 -66 18 -12 19 -11 10 5 -16 27 -51 69 -51
61z"/>
<path d="M2040 452 c0 -29 4 -52 8 -52 9 0 8 87 -1 97 -4 3 -7 -17 -7 -45z"/>
<path d="M1006 437 c3 -10 9 -15 12 -12 3 3 0 11 -7 18 -10 9 -11 8 -5 -6z"/>
<path d="M1696 437 c3 -10 9 -15 12 -12 3 3 0 11 -7 18 -10 9 -11 8 -5 -6z"/>
<path d="M960 408 c0 -12 10 -32 22 -45 16 -17 19 -26 10 -35 -8 -8 -2 -23 24
-56 37 -49 72 -78 81 -68 10 9 -19 56 -30 49 -13 -8 -56 47 -57 73 0 12 -9 33
-20 47 -21 27 -26 42 -10 32 6 -3 7 1 4 9 -9 23 -24 19 -24 -6z"/>
<path d="M2059 393 c-9 -15 -14 -34 -12 -41 3 -7 -2 -24 -11 -37 -13 -19 -14
-30 -6 -45 6 -11 15 -18 19 -16 12 8 33 108 29 139 l-3 29 -16 -29z m8 -40
c-3 -10 -5 -4 -5 12 0 17 2 24 5 18 2 -7 2 -21 0 -30z"/>
<path d="M1056 287 c3 -10 9 -15 12 -12 3 3 0 11 -7 18 -10 9 -11 8 -5 -6z"/>
</g>
</svg>
