<?xml version="1.0" standalone="no"?>
<!DOCTYPE svg PUBLIC "-//W3C//DTD SVG 20010904//EN"
 "http://www.w3.org/TR/2001/REC-SVG-20010904/DTD/svg10.dtd">
<svg version="1.0" xmlns="http://www.w3.org/2000/svg"
 width="300.000000pt" height="360.000000pt" viewBox="0 0 300.000000 360.000000"
 preserveAspectRatio="xMidYMid meet">
<metadata>
Created by potrace 1.10, written by Peter Selinger 2001-2011
</metadata>
<g transform="translate(0.000000,360.000000) scale(0.100000,-0.100000)"
fill="#000000" stroke="none">
<path d="M1564 3428 c27 -91 36 -135 36 -173 0 -24 5 -47 11 -51 7 -4 9 11 5
52 -4 39 -3 50 3 33 4 -14 11 -56 15 -95 5 -59 4 -65 -6 -44 -7 14 -16 30 -20
35 -4 6 -22 30 -40 54 -36 47 -93 76 -210 104 -79 20 -188 31 -187 20 0 -4 28
-31 62 -59 54 -44 107 -105 107 -123 0 -3 -28 -5 -62 -5 -71 2 -177 -25 -251
-63 l-52 -27 71 -7 c63 -6 143 -33 131 -45 -2 -2 -31 -21 -65 -42 -60 -37
-147 -110 -140 -117 2 -3 33 0 68 5 63 8 63 9 12 7 -28 -1 -52 1 -52 4 0 10
92 78 155 115 129 75 157 83 226 62 43 -12 49 -23 18 -33 -11 -4 -49 -28 -84
-55 -57 -43 -70 -48 -135 -55 -39 -4 -84 -10 -98 -14 -23 -7 -17 -9 32 -15 33
-4 66 -10 75 -14 9 -3 13 -2 9 3 -4 4 -25 11 -45 15 l-38 8 40 1 c22 1 51 4
64 8 l24 6 -28 -37 c-15 -20 -25 -39 -22 -43 4 -3 9 1 13 10 5 14 10 15 27 5
12 -6 24 -12 26 -14 2 -2 -13 -23 -33 -48 -49 -60 -45 -67 9 -17 44 40 65 51
65 32 0 -6 -4 -13 -10 -16 -5 -3 -10 -17 -10 -31 0 -17 -8 -27 -26 -34 -16 -6
-23 -14 -18 -22 4 -7 3 -10 -1 -5 -10 9 -55 -31 -55 -49 0 -6 -7 -17 -15 -24
-13 -10 -15 -9 -15 11 1 51 29 139 56 176 l28 38 -32 -30 c-33 -32 -55 -100
-65 -200 l-5 -49 51 57 c29 31 64 61 80 67 22 8 27 16 27 43 0 35 25 64 101
121 l36 26 38 -25 c20 -14 39 -24 42 -21 3 2 -12 16 -34 29 -55 36 -109 41
-184 17 -35 -10 -65 -18 -67 -16 -2 3 6 7 17 11 11 3 18 11 15 18 -5 14 75 78
151 122 37 22 66 29 120 33 l70 4 33 -40 c17 -23 32 -52 32 -66 0 -23 2 -24
36 -14 48 13 84 -3 133 -58 56 -64 85 -171 33 -121 -43 42 -162 83 -162 57 0
-5 13 -10 28 -10 33 0 122 -42 147 -70 18 -20 18 -21 -1 -35 -26 -20 -29 -19
-31 11 -1 27 -18 52 -28 42 -4 -3 1 -22 9 -42 9 -22 11 -36 5 -36 -6 0 -13 8
-16 18 -3 14 -15 19 -41 20 -39 2 -62 22 -62 54 0 10 -7 21 -15 24 -8 4 -15
18 -15 34 0 25 4 28 38 33 30 4 44 -1 75 -25 50 -39 59 -30 10 11 -50 41 -98
57 -120 40 -9 -8 -21 -14 -27 -15 -32 -3 -36 -5 -36 -14 0 -7 6 -7 19 -1 25
14 31 5 31 -47 0 -41 -5 -49 -67 -114 l-68 -70 52 21 c29 11 54 17 57 12 6 -8
-44 -26 -102 -36 -32 -5 -32 -5 -18 17 25 40 46 124 33 137 -8 8 -8 11 0 11
18 0 25 -37 13 -60 -6 -12 -9 -26 -7 -33 2 -7 9 5 16 25 14 42 7 78 -15 78
-21 0 -17 8 15 36 16 13 31 37 33 54 3 16 3 28 0 25 -2 -2 -18 9 -36 25 -44
42 -57 37 -13 -5 27 -26 34 -40 30 -57 -7 -29 -52 -67 -79 -68 -28 0 -173
-138 -202 -192 l-23 -43 30 35 c17 19 31 40 31 46 0 6 8 18 18 25 15 12 16 12
4 -2 -10 -14 -8 -24 13 -60 13 -24 25 -52 25 -61 0 -9 21 -33 48 -53 26 -20
47 -40 47 -45 0 -5 3 -12 8 -16 15 -15 6 -24 -18 -18 -15 4 -25 2 -25 -5 0 -6
11 -11 25 -11 32 0 32 -14 -1 -28 -24 -11 -44 -46 -58 -102 -3 -14 6 0 21 30
36 71 84 100 166 100 35 0 57 4 57 11 0 7 -12 10 -29 7 -23 -3 -28 -1 -23 11
4 13 2 13 -15 -1 -28 -26 -40 -22 -16 5 39 43 35 51 -6 10 -44 -47 -62 -54
-53 -21 3 14 2 19 -6 14 -7 -4 -12 -1 -12 9 0 9 4 13 10 10 13 -8 136 61 144
80 12 32 26 12 27 -37 1 -29 4 -43 6 -30 5 26 16 28 33 7 26 -31 11 -45 -212
-209 -42 -31 -81 -56 -85 -56 -17 0 -53 80 -53 118 0 30 7 48 29 71 16 17 37
31 47 31 13 0 15 3 7 11 -8 8 -23 7 -56 -6 -25 -9 -51 -14 -57 -10 -6 4 -21
-2 -33 -13 -12 -11 -35 -24 -52 -29 -27 -9 -30 -14 -32 -59 -2 -27 -8 -72 -14
-101 -10 -42 -9 -55 1 -68 10 -12 10 -19 2 -27 -18 -18 -14 -49 8 -68 29 -26
37 -126 10 -140 -26 -14 -27 -14 -43 19 -13 27 -13 31 2 44 9 8 23 16 31 19
10 3 11 6 2 12 -6 4 -24 -6 -42 -22 -26 -26 -28 -31 -15 -42 8 -7 15 -17 15
-23 0 -5 -9 -2 -19 7 -12 11 -25 15 -33 10 -7 -5 -19 -9 -27 -9 -8 0 -16 -6
-19 -13 -2 -7 2 -11 9 -10 8 2 16 -13 20 -41 11 -56 24 -70 16 -16 -6 36 -5
37 4 12 14 -37 7 -52 -25 -55 -23 -2 -25 1 -17 16 12 23 9 53 -6 69 -15 16
-37 17 -27 1 4 -7 3 -8 -4 -4 -17 10 -15 26 3 26 18 0 20 34 3 48 -23 18 -93
6 -121 -21 -23 -23 -24 -30 -16 -73 15 -77 58 -109 114 -83 15 7 12 7 -13 3
-26 -5 -39 -1 -58 17 -17 16 -21 26 -13 35 6 7 16 11 23 8 7 -3 19 2 26 11 13
15 40 21 40 8 0 -4 -12 -20 -27 -37 l-28 -30 29 18 c23 14 28 15 24 4 -4 -9 0
-15 8 -15 10 0 14 9 12 30 -2 19 2 32 11 35 11 4 13 -4 9 -35 -6 -44 15 -70
43 -52 8 5 25 9 39 9 36 0 50 18 50 61 0 34 8 44 35 48 10 1 12 -24 3 -49 -9
-23 -28 -168 -33 -245 -3 -38 -9 -113 -14 -165 -18 -180 -20 -240 -10 -268 12
-30 15 -205 4 -222 -7 -12 -13 -50 -21 -157 -5 -59 -5 -62 24 -83 19 -14 33
-35 37 -56 6 -36 9 -38 97 -49 44 -6 49 -4 60 19 6 14 17 26 24 26 7 0 25 15
41 34 15 18 42 41 60 50 45 22 47 30 23 82 -14 34 -17 50 -10 60 8 8 8 14 0
19 -5 3 -11 30 -12 58 l-1 52 -7 -50 c-4 -27 -8 -45 -9 -40 -1 6 -6 1 -11 -10
-5 -11 -6 -47 -3 -81 l5 -61 -60 -46 c-33 -26 -65 -47 -71 -47 -22 0 -10 26
24 53 52 41 43 48 -22 15 -69 -35 -77 -42 -38 -33 l30 6 -29 -25 c-44 -37 -65
-39 -78 -8 -7 15 -20 34 -31 43 -11 9 -20 32 -23 60 -4 42 -2 45 29 58 75 33
96 55 133 136 45 97 58 138 41 128 -7 -4 -6 1 2 10 15 19 24 154 10 163 -5 3
-9 -26 -9 -63 0 -68 -1 -70 -44 -113 -24 -24 -42 -49 -40 -55 3 -6 -11 -29
-29 -50 -30 -35 -36 -38 -51 -26 -9 8 -16 28 -16 49 l0 35 26 -24 27 -24 -18
34 c-36 72 -44 130 -39 291 2 85 9 169 14 185 5 17 8 55 8 86 0 81 12 159 28
191 8 16 11 28 7 28 -4 0 2 6 12 14 18 13 18 14 1 32 -18 17 -18 18 0 31 17
12 17 13 0 13 -31 0 -4 57 35 73 10 4 9 6 -3 6 -9 1 -21 -7 -27 -16 -11 -21
-16 -17 -25 20 -6 27 6 38 19 16 5 -7 44 -9 116 -5 64 3 109 1 109 -4 0 -5 7
-7 15 -4 8 4 13 9 11 13 -4 5 28 6 122 2 25 -1 26 -21 2 -29 -8 -3 -10 0 -5 8
6 10 4 12 -9 7 -10 -4 -39 -8 -64 -9 l-47 -1 55 -6 c44 -5 55 -9 54 -23 -1
-10 5 -18 13 -18 9 0 13 -8 11 -22 -2 -17 -11 -24 -30 -26 -31 -4 -39 -19 -9
-17 35 2 51 25 51 71 0 24 6 49 15 58 8 8 15 19 15 25 0 6 9 11 20 11 10 0 24
9 30 19 5 11 17 26 25 35 11 11 14 26 9 55 -4 23 -11 41 -17 41 -6 0 -7 17 -3
43 5 35 16 51 63 95 32 28 63 52 70 52 20 0 60 -50 67 -82 3 -18 0 -41 -10
-60 -8 -16 -13 -32 -10 -36 3 -3 6 1 6 8 0 9 3 11 10 4 15 -15 16 -70 1 -88
-9 -11 -10 -16 -2 -16 6 0 11 6 11 13 0 8 3 7 9 -3 6 -8 7 -26 4 -41 -3 -15 2
-40 11 -58 12 -21 15 -43 10 -66 -6 -33 -24 -59 -24 -35 0 6 -12 22 -26 35
-20 19 -38 25 -71 25 -39 0 -48 -5 -83 -42 -21 -23 -37 -45 -34 -48 3 -2 13 5
22 18 15 19 23 21 52 16 19 -4 40 -11 46 -16 24 -18 28 -128 5 -113 -5 2 -17
-4 -27 -13 -18 -17 -19 -17 -42 9 -13 16 -29 26 -37 22 -11 -4 -15 3 -15 26 0
37 26 43 33 9 3 -17 5 -14 6 10 2 61 44 53 58 -11 3 -16 10 -24 14 -20 5 5 5
22 1 38 -11 39 -53 56 -80 32 -10 -9 -27 -18 -38 -20 -26 -4 -44 -16 -44 -30
0 -8 3 -8 12 1 20 20 25 14 32 -30 4 -23 11 -47 17 -54 7 -9 5 -11 -8 -9 -10
2 -22 4 -26 4 -5 1 -6 20 -2 44 10 57 -3 43 -14 -16 l-8 -47 56 0 c54 1 96 15
103 35 2 5 8 10 14 10 21 0 73 54 80 81 4 16 12 36 19 44 21 25 27 74 13 106
-7 16 -13 45 -15 64 -1 19 -4 53 -7 75 -3 22 -8 67 -10 101 -2 33 -9 69 -15
80 -6 10 -15 31 -21 47 -5 15 -17 27 -26 27 -9 0 -30 6 -47 14 -18 8 -50 20
-72 26 -90 27 -115 42 -115 71 0 19 6 30 21 34 11 4 18 9 16 11 -2 3 -16 -1
-31 -7 -14 -7 -29 -9 -33 -5 -10 10 17 26 45 26 12 0 22 5 22 11 0 5 5 7 10 4
6 -3 10 -1 10 4 0 6 24 24 53 41 76 44 86 54 93 89 5 22 9 28 15 20 4 -8 11
-11 14 -7 3 3 -1 13 -10 22 -9 9 -13 20 -10 26 4 6 3 9 -2 8 -9 -3 -75 63 -70
69 9 9 39 -12 53 -36 l15 -26 -7 25 -6 25 29 -27 c32 -31 45 -36 37 -13 -4 8
-10 13 -14 10 -4 -3 -14 2 -21 11 -16 19 -63 44 -84 44 -9 0 -30 10 -48 22
-18 13 -34 24 -37 26 -3 2 6 12 20 22 18 14 21 20 10 21 -23 2 41 17 80 18 35
1 35 1 10 -12 -41 -22 -70 -41 -70 -47 0 -3 10 -6 22 -7 12 -1 34 -11 50 -23
19 -14 28 -16 28 -8 1 7 9 -3 20 -22 12 -22 19 -28 20 -18 0 10 -20 38 -44 63
l-44 46 27 11 c14 5 41 12 59 15 17 3 32 9 32 12 0 20 -138 60 -177 53 -10 -2
-11 12 -8 55 l5 58 -15 -45 c-8 -25 -13 -50 -10 -57 2 -6 -3 -17 -11 -23 -12
-10 -14 -7 -14 19 0 17 7 48 15 68 8 19 15 46 15 59 0 43 18 25 29 -28 18 -90
21 -95 15 -33 -2 33 -11 70 -19 82 -8 12 -15 30 -16 40 -1 10 -7 -11 -15 -46
-17 -78 -24 -88 -24 -34 0 46 -50 125 -133 211 -56 56 -73 65 -63 30z m91 -78
c84 -99 95 -125 95 -221 0 -65 -4 -90 -15 -99 -29 -24 -7 -21 30 5 21 14 52
25 70 25 38 0 139 -29 131 -37 -3 -4 -40 -6 -80 -5 -68 2 -77 0 -103 -24 -15
-15 -19 -21 -8 -13 17 11 18 11 8 -1 -7 -8 -21 -15 -30 -16 -10 -2 -33 -6 -50
-9 -28 -5 -33 -3 -33 13 0 11 -9 31 -21 45 -11 15 -22 36 -24 48 -3 12 -7 24
-11 28 -4 3 -4 -2 -1 -11 7 -20 -8 -25 -19 -7 -4 7 -25 9 -58 5 l-51 -7 -40
68 c-38 67 -165 203 -188 203 -7 0 2 -12 18 -26 81 -70 99 -91 141 -156 72
-112 71 -113 -41 -76 l-66 21 -41 -23 c-23 -13 -38 -18 -35 -13 8 13 -20 26
-35 17 -6 -4 -14 -1 -18 6 -4 6 -34 13 -66 15 -32 1 -43 0 -24 -2 19 -2 39 -8
45 -12 5 -5 28 -14 49 -21 31 -10 36 -14 23 -21 -10 -6 -27 -2 -51 12 -19 11
-61 23 -92 26 l-57 6 35 18 c44 23 195 59 244 59 47 0 56 -6 77 -45 25 -47 20
-13 -7 46 -14 29 -52 80 -88 116 l-62 63 39 0 c55 -1 162 -28 250 -64 42 -17
82 -67 136 -169 l25 -48 -3 68 c-5 86 -30 209 -47 226 -8 7 -17 23 -21 36 -7
22 -6 23 13 10 11 -8 37 -34 57 -59z m240 -405 l30 -25 -37 17 c-21 9 -38 20
-38 25 0 14 14 9 45 -17z m-505 -69 c-7 -9 -17 -16 -23 -16 -6 0 -21 -9 -33
-21 l-22 -21 -31 23 c-30 22 -31 24 -11 31 14 5 29 2 44 -7 21 -14 36 -12 36
7 0 4 -5 8 -11 8 -5 0 -7 -6 -3 -12 5 -9 2 -9 -9 1 -9 7 -17 14 -17 15 0 1 21
3 47 5 41 2 45 0 33 -13z m339 5 c9 -6 2 -10 -24 -13 -32 -4 -35 -3 -19 9 21
15 24 16 43 4z m-450 -54 c-2 -1 -13 -9 -24 -17 -19 -14 -19 -14 -6 3 7 9 18
17 24 17 6 0 8 -1 6 -3z m631 -58 c0 -15 -3 -30 -7 -32 -5 -3 -8 7 -8 21 -1
15 -4 38 -8 52 -8 24 -7 24 7 6 9 -11 16 -32 16 -47z m-370 23 c0 -4 -15 -13
-34 -20 -19 -7 -55 -29 -82 -49 -26 -20 -44 -31 -40 -24 15 23 121 101 139
101 9 0 17 -4 17 -8z m204 -84 c27 6 39 -12 31 -47 -8 -37 -25 -41 -25 -6 0
14 5 25 12 25 9 0 9 3 -1 13 -10 10 -16 7 -32 -12 -11 -13 -17 -31 -14 -40 3
-10 -4 -23 -16 -31 -11 -8 -26 -28 -33 -45 -9 -22 -30 -38 -74 -59 -64 -31
-92 -29 -92 4 0 12 5 18 10 15 6 -3 10 -1 10 4 0 6 -7 11 -15 11 -8 0 -15 5
-15 11 0 5 -4 7 -10 4 -6 -3 -10 4 -11 17 0 22 -1 22 -9 3 -12 -29 -12 -35 4
-35 13 0 31 -29 23 -37 -2 -2 -16 6 -31 18 -15 12 -25 24 -22 27 3 2 -4 19
-16 36 -12 17 -16 26 -8 20 25 -19 157 -3 198 24 12 8 22 11 22 8 0 -4 9 -2
21 4 48 26 -5 49 -55 24 -26 -13 -23 -9 15 25 25 22 52 55 59 72 l14 32 20
-44 c16 -33 26 -44 40 -41z m-194 47 c0 -22 -21 -67 -44 -94 -12 -13 -15 -21
-8 -17 15 9 16 -4 1 -24 -8 -11 -12 -12 -16 -2 -2 6 -9 12 -14 12 -6 0 -7 -5
-3 -12 4 -7 3 -8 -4 -4 -6 4 -9 13 -5 21 3 9 -1 15 -10 15 -8 0 -18 7 -21 16
-3 8 -11 12 -16 9 -7 -4 -1 -19 15 -41 25 -33 21 -50 -5 -19 -7 8 -15 13 -19
11 -3 -2 -7 8 -8 22 -1 30 37 71 97 102 43 23 60 25 60 5z m256 -91 c-10 -26
-23 -14 -18 17 4 26 6 29 14 15 5 -10 7 -24 4 -32z m-69 -46 c-3 -7 -5 -2 -5
12 0 14 2 19 5 13 2 -7 2 -19 0 -25z m133 -184 c30 -13 48 -23 40 -24 -23 0
-121 -97 -130 -128 -7 -25 -8 -24 -16 18 l-8 45 -8 -40 c-11 -47 -1 -142 14
-151 8 -5 9 -1 5 10 -5 12 -3 16 5 14 7 -3 13 -13 13 -24 0 -15 -7 -19 -30
-17 -16 1 -22 -1 -12 -4 51 -14 -17 -66 -95 -73 -64 -5 -77 4 -25 19 32 9 32
9 -13 10 -55 1 -134 -24 -104 -33 10 -3 0 -4 -23 -2 -24 2 -46 0 -49 -5 -3 -5
-22 -9 -42 -8 -20 1 -44 -1 -53 -5 -21 -9 -89 48 -89 75 0 14 9 8 41 -24 30
-31 37 -36 29 -17 -7 14 -26 39 -42 57 -30 31 -30 33 -23 102 4 39 10 73 15
76 4 2 5 15 3 28 -4 19 3 30 28 48 27 19 32 20 26 5 -23 -59 -18 -90 25 -165
51 -88 79 -107 43 -29 -14 29 -25 67 -24 83 0 29 1 28 25 -17 l24 -48 55 0 54
0 121 120 c66 66 120 124 120 130 0 13 22 8 100 -26z m-496 -51 c-3 -16 -9
-50 -13 -78 -8 -50 -8 -50 -20 -21 -10 25 -8 73 4 114 3 6 11 12 19 12 12 0
14 -7 10 -27z m410 -192 c-7 -9 -24 13 -24 32 0 21 1 21 13 -3 8 -14 12 -27
11 -29z m-219 -121 c-3 -5 -12 -10 -18 -10 -7 0 -6 4 3 10 19 12 23 12 15 0z
m414 -104 c18 -19 21 -30 15 -65 -12 -73 -38 -67 -48 12 -7 53 1 60 26 20 16
-26 17 -27 18 -6 0 12 -10 29 -22 38 -21 14 -24 14 -31 -3 -6 -14 -16 -17 -38
-14 -17 2 -28 9 -26 16 2 6 12 10 21 8 9 -2 24 2 34 7 24 14 26 14 51 -13z
m-902 -2 c3 -9 0 -20 -8 -25 -23 -14 -29 -11 -29 16 0 28 27 35 37 9z m-49
-27 c16 -28 16 -29 -8 -49 -30 -24 -39 -8 -16 27 18 27 15 30 -15 15 -22 -12
-24 -7 -8 21 13 25 26 21 47 -14z m165 -29 l16 -23 -5 25 c-4 22 -3 23 5 5 11
-22 14 -79 5 -87 -10 -10 -44 4 -44 18 0 17 12 18 28 2 9 -9 12 -7 12 9 0 16
-5 20 -20 16 -15 -4 -22 2 -30 22 -13 34 -13 35 4 35 7 0 21 -10 29 -22z
m-213 2 c13 -8 12 -10 -2 -10 -10 0 -18 -5 -18 -11 0 -5 5 -7 12 -3 7 4 8 3 4
-4 -12 -20 -26 -13 -26 13 0 27 7 30 30 15z m864 -111 c-7 -11 -34 -12 -34 -1
0 14 11 21 26 15 8 -3 11 -9 8 -14z m-441 -706 c-3 -10 -12 -25 -19 -33 -7 -9
-23 -41 -35 -73 -20 -52 -32 -63 -61 -58 -5 0 -8 -3 -8 -9 0 -5 6 -10 13 -10
15 -1 -33 -29 -50 -30 -9 0 -13 15 -13 45 0 46 12 58 28 29 7 -13 22 0 76 70
37 47 69 86 72 86 2 0 1 -8 -3 -17z m140 -280 c1 -20 -3 -37 -8 -40 -6 -2 -11
5 -11 14 0 10 -3 43 -7 73 l-6 55 15 -33 c8 -19 16 -50 17 -69z m-193 -143 c0
-12 -28 -25 -36 -17 -9 9 6 27 22 27 8 0 14 -5 14 -10z m50 1 c0 -12 -29 -35
-36 -28 -11 10 5 37 21 37 8 0 15 -4 15 -9z"/>
<path d="M1707 3220 c3 -19 9 -51 13 -70 l8 -35 1 40 c0 22 -6 54 -14 70 l-14
30 6 -35z"/>
<path d="M1420 3215 c0 -13 86 -130 98 -132 17 -4 15 4 -9 43 -11 19 -24 32
-29 29 -5 -3 -18 11 -30 30 -20 33 -30 42 -30 30z m88 -110 c-3 -3 -9 2 -12
12 -6 14 -5 15 5 6 7 -7 10 -15 7 -18z"/>
<path d="M1540 3207 c0 -17 49 -87 54 -78 4 6 2 11 -3 11 -6 0 -11 5 -11 11 0
6 -9 22 -20 36 -11 14 -20 23 -20 20z"/>
<path d="M1280 3120 c-21 -7 -21 -8 -5 -9 11 0 27 4 35 9 18 11 5 11 -30 0z"/>
<path d="M1727 3070 c3 -11 7 -20 9 -20 2 0 4 9 4 20 0 11 -4 20 -9 20 -5 0
-7 -9 -4 -20z"/>
<path d="M1715 2990 c-3 -5 -1 -10 4 -10 6 0 11 5 11 10 0 6 -2 10 -4 10 -3 0
-8 -4 -11 -10z"/>
<path d="M1694 2715 c-4 -8 -3 -23 0 -32 6 -15 8 -15 16 -3 6 9 6 16 0 18 -5
2 -6 10 -3 18 3 8 2 14 -1 14 -4 0 -9 -7 -12 -15z"/>
<path d="M1610 2611 c-7 -11 -18 -17 -25 -15 -18 7 -67 -15 -60 -26 4 -7 12
-7 25 0 10 5 27 10 37 10 10 0 24 9 31 21 17 27 10 35 -8 10z"/>
<path d="M1440 2675 c7 -9 15 -13 17 -11 7 7 -7 26 -19 26 -6 0 -6 -6 2 -15z"/>
<path d="M1647 2278 c-41 -57 -86 -112 -98 -124 -28 -24 -100 -54 -132 -54
-26 0 -63 44 -107 126 -27 51 -30 54 -24 24 19 -103 54 -150 122 -169 28 -8
42 -5 100 25 83 43 133 97 183 197 22 42 38 77 35 77 -2 0 -37 -46 -79 -102z"/>
<path d="M1958 1893 c5 -21 7 -23 10 -9 2 10 0 22 -6 28 -6 6 -7 0 -4 -19z"/>
<path d="M1220 2964 l-45 -14 45 6 c43 5 58 10 49 17 -2 2 -24 -2 -49 -9z"/>
<path d="M1405 2963 c-44 -10 -136 -47 -142 -56 -4 -7 1 -8 13 -2 50 21 129
45 150 45 13 0 26 5 29 10 6 10 -14 11 -50 3z"/>
<path d="M1480 2963 c0 -5 14 -17 31 -27 17 -10 39 -32 50 -50 11 -18 19 -24
19 -15 0 9 -9 27 -19 40 -21 27 -81 65 -81 52z"/>
<path d="M1369 2752 c-36 -41 -79 -106 -80 -123 -1 -7 -5 4 -10 26 l-7 40 1
-47 c1 -27 0 -48 -3 -48 -3 0 -6 -14 -7 -31 -2 -25 0 -29 11 -20 7 6 14 22 14
35 0 26 45 110 88 164 32 39 27 43 -7 4z"/>
<path d="M1846 2305 c-5 -16 -14 -37 -21 -45 -26 -32 -27 -44 -2 -22 29 27 52
24 87 -13 27 -29 40 -116 21 -139 -17 -20 -57 -2 -76 33 -14 25 -14 25 -15 4
0 -13 10 -29 25 -39 31 -20 105 -31 105 -15 0 6 -5 11 -11 11 -7 0 -10 12 -7
33 3 17 0 48 -7 67 -10 30 -9 37 4 48 14 12 14 13 -2 8 -29 -9 -86 34 -89 69
l-4 30 -8 -30z"/>
<path d="M1203 2288 c-5 -13 -8 -29 -6 -35 8 -24 18 -13 20 22 2 41 0 43 -14
13z"/>
<path d="M1831 2164 c0 -11 3 -14 6 -6 3 7 2 16 -1 19 -3 4 -6 -2 -5 -13z"/>
<path d="M1829 2093 c6 -12 19 -27 29 -32 14 -8 15 -12 5 -22 -7 -7 -13 -20
-13 -28 1 -9 8 -2 17 14 9 17 18 25 21 17 2 -6 8 -10 13 -6 15 9 10 24 -8 24
-9 0 -30 12 -46 28 -26 23 -28 24 -18 5z"/>
<path d="M1411 2005 c3 -2 29 -7 59 -10 70 -7 77 -15 12 -15 -28 0 -63 -5 -77
-12 -21 -9 -31 -9 -46 0 -24 15 -26 15 -26 -3 0 -8 9 -15 21 -15 28 0 50 -15
42 -29 -4 -6 -14 -11 -23 -11 -9 0 -14 -2 -11 -5 2 -3 31 0 64 6 32 7 66 11
74 10 49 -3 129 1 155 9 21 6 9 7 -41 3 -48 -4 -74 -2 -78 6 -4 6 -12 11 -17
11 -6 0 -8 -4 -4 -9 3 -6 -10 -8 -32 -5 -50 7 -63 12 -63 22 0 4 33 5 73 1 39
-4 88 -8 107 -8 l35 -1 -29 15 c-15 8 -37 15 -48 15 -10 0 -17 4 -14 9 3 4
-15 11 -41 15 -54 7 -98 8 -92 1z"/>
<path d="M1430 1893 c-41 -2 -78 -7 -82 -11 -4 -4 -12 -43 -18 -87 -6 -44 -15
-99 -21 -121 -9 -34 -8 -46 4 -65 8 -13 20 -41 26 -61 8 -25 24 -43 48 -58 23
-14 32 -16 24 -6 -7 8 -9 21 -5 27 4 7 3 9 -4 5 -6 -3 -22 9 -36 27 -27 35
-34 53 -16 42 20 -13 9 8 -14 26 l-25 19 19 56 c11 30 16 52 11 50 -10 -7 7
101 20 125 5 11 17 19 25 19 18 0 15 -34 -13 -149 -15 -60 -15 -67 2 -118 20
-57 43 -86 31 -38 -9 35 -8 186 2 245 5 30 12 45 22 45 18 0 19 -12 3 -97 -9
-47 -9 -76 -2 -94 5 -15 12 -24 15 -21 3 3 1 14 -5 25 -8 16 -6 41 9 103 28
119 41 121 51 6 l7 -72 -2 78 -1 78 30 -7 c16 -4 33 -12 37 -18 6 -8 8 -7 8 2
0 7 13 12 29 12 24 0 31 -6 40 -31 6 -18 11 -43 11 -55 0 -39 18 -27 22 14 l4
37 13 -30 c7 -16 10 -45 7 -63 -4 -27 -2 -32 8 -23 15 13 22 -10 34 -114 6
-51 9 -56 16 -35 16 46 37 -72 39 -220 2 -150 -8 -191 -52 -215 -16 -9 -20
-14 -11 -15 9 0 21 5 28 12 15 15 16 3 2 -23 -20 -36 -70 -18 -147 54 -18 17
-35 28 -38 25 -6 -6 83 -90 122 -115 27 -18 68 -10 78 14 15 41 35 158 35 209
0 30 4 54 8 54 13 0 64 -185 67 -242 3 -53 -20 -172 -38 -195 -5 -7 -34 -27
-63 -44 -45 -25 -61 -30 -92 -24 -50 8 -120 74 -131 123 -9 34 -9 33 -6 -16 1
-29 10 -61 18 -70 12 -13 14 -32 10 -84 l-6 -67 34 -20 c19 -12 49 -24 67 -27
37 -7 72 -46 72 -80 0 -22 4 -24 49 -24 78 0 101 13 101 55 0 45 12 69 58 117
l35 37 -23 38 c-22 36 -29 73 -33 169 -1 22 -9 49 -17 59 -8 10 -15 39 -16 64
-1 53 -47 209 -75 255 -12 19 -19 50 -19 80 0 46 -31 157 -51 182 -5 6 -14 34
-20 63 -18 84 -54 165 -80 178 -13 7 -43 13 -66 13 -23 0 -45 5 -48 10 -3 6
-16 9 -28 8 -12 -1 -56 -4 -97 -5z m478 -1028 c-16 -64 -35 -108 -66 -154 -42
-64 -50 -95 -13 -50 l20 24 -4 -39 c-6 -48 -11 -56 -37 -56 -14 0 -18 5 -14
15 3 9 0 15 -10 15 -8 0 -12 5 -9 10 4 6 -7 27 -22 48 -16 20 -37 50 -46 65
-10 15 -22 25 -27 22 -6 -4 -10 1 -10 9 0 21 18 30 35 16 10 -8 30 -10 59 -6
63 10 104 58 136 160 22 70 25 75 28 45 2 -18 -7 -74 -20 -124z m31 -40 c-8
-101 -23 -145 -51 -145 -15 0 -18 4 -13 18 15 34 45 134 45 147 0 15 18 65 23
65 1 0 0 -38 -4 -85z m-89 36 c0 -12 -58 -61 -72 -61 -7 0 -7 5 1 13 6 8 7 18
3 22 -4 5 -1 5 5 1 7 -4 20 2 30 14 18 21 33 26 33 11z m-195 -22 c27 -16 46
-20 75 -16 23 3 38 1 34 -4 -3 -5 -29 -9 -58 -9 -39 0 -58 5 -74 20 -38 36
-29 39 23 9z m315 -53 c0 -13 -8 -30 -17 -37 -15 -12 -16 -12 -10 4 4 10 7 30
7 43 0 14 4 22 10 19 6 -3 10 -17 10 -29z m-316 -6 c10 -18 22 -28 29 -24 7 4
9 4 5 -1 -4 -4 1 -20 12 -35 11 -16 20 -31 20 -34 0 -14 -50 28 -69 57 -21 33
-29 30 -11 -4 12 -21 10 -22 -14 -13 -16 6 -21 39 -10 68 9 23 17 20 38 -14z
m240 -147 c-9 -35 -13 -43 -25 -43 -10 0 -12 30 -3 54 3 9 12 16 20 16 11 0
13 -7 8 -27z"/>
<path d="M1861 1844 c0 -11 3 -14 6 -6 3 7 2 16 -1 19 -3 4 -6 -2 -5 -13z"/>
<path d="M985 1840 c4 -6 11 -8 16 -5 14 9 11 15 -7 15 -8 0 -12 -5 -9 -10z"/>
<path d="M1742 1825 c0 -16 2 -22 5 -12 2 9 2 23 0 30 -3 6 -5 -1 -5 -18z"/>
<path d="M1551 1835 c0 -5 6 -35 13 -65 l12 -55 11 43 c6 23 7 39 2 36 -5 -3
-9 -1 -9 3 0 5 -7 18 -15 29 -8 10 -14 15 -14 9z"/>
<path d="M1607 1723 c-11 -10 -8 -73 3 -73 6 0 10 18 10 40 0 41 -2 45 -13 33z"/>
<path d="M1472 1655 c-7 -15 -8 -25 -2 -25 6 0 10 -15 10 -34 0 -18 7 -39 15
-46 8 -7 15 -19 15 -27 0 -7 7 -16 15 -19 8 -4 12 -11 8 -18 -3 -6 -3 -8 2 -4
4 4 28 -4 54 -19 l46 -26 -40 38 c-22 20 -55 49 -74 63 -33 26 -33 27 -27 84
6 61 -3 75 -22 33z"/>
<path d="M1434 1589 c4 -29 15 -51 31 -64 14 -12 25 -31 25 -43 0 -12 12 -41
26 -63 37 -59 20 -62 -33 -6 -34 37 -48 45 -54 35 -5 -7 -9 -17 -9 -21 0 -4
-14 -37 -30 -73 -17 -36 -28 -69 -25 -73 3 -5 -4 -31 -16 -58 -32 -74 -59
-166 -44 -151 11 11 92 227 83 222 -13 -8 -9 1 21 49 28 45 38 47 39 8 0 -17
6 -39 12 -51 8 -14 8 -30 2 -48 -12 -36 0 -122 21 -152 21 -30 22 -23 2 23
-16 40 -21 137 -6 137 5 0 12 -10 14 -22 3 -13 3 9 0 47 -4 57 -9 75 -29 96
-13 14 -24 34 -24 45 1 15 7 12 33 -18 29 -33 92 -78 110 -78 13 0 8 16 -13
38 -29 31 -70 111 -70 137 0 12 -9 30 -19 39 -11 10 -23 31 -26 47 -11 49 -29
48 -21 -2z"/>
<path d="M1520 1329 c0 -15 37 -81 51 -90 5 -3 20 -20 33 -37 23 -31 92 -92
105 -92 4 0 -23 30 -59 68 -36 37 -80 89 -98 116 -17 27 -32 43 -32 35z"/>
<path d="M1506 1153 c9 -21 21 -54 27 -73 6 -19 39 -64 73 -99 59 -61 64 -64
117 -69 51 -4 56 -2 72 22 22 33 14 43 -17 22 -47 -33 -99 -15 -166 58 -23 25
-48 46 -55 46 -8 0 -7 4 3 10 10 6 11 10 3 10 -7 0 -24 25 -38 55 -28 61 -45
77 -19 18z"/>
<path d="M1551 1135 l1 -50 10 38 c7 28 7 42 -1 50 -8 8 -11 -2 -10 -38z"/>
<path d="M1448 1039 c-7 -102 -28 -156 -88 -218 -40 -41 -44 -43 -84 -37 l-41
6 24 -21 c17 -14 32 -18 49 -14 29 7 100 52 126 80 28 31 66 116 65 150 0 25
-3 22 -13 -18 -14 -49 -46 -97 -46 -67 0 8 4 31 10 50 13 50 19 132 10 155 -4
12 -9 -14 -12 -66z m-18 -184 c-7 -8 -17 -15 -23 -15 -5 0 -2 9 8 20 21 23 35
19 15 -5z"/>
<path d="M1276 852 c-7 -11 22 -52 36 -52 7 0 6 5 -2 15 -7 8 -10 22 -6 30 6
16 -19 22 -28 7z"/>
<path d="M1229 604 c-10 -12 -10 -20 -1 -35 7 -10 12 -26 12 -35 0 -27 -83
-100 -153 -135 -66 -32 -113 -66 -104 -75 2 -3 58 -7 123 -9 66 -3 109 -1 97
3 -13 4 -32 15 -44 25 -20 18 -21 18 -14 -4 6 -17 4 -20 -6 -13 -8 5 -25 9
-39 10 -67 3 -67 3 -21 33 24 16 50 27 58 24 12 -5 9 -10 -11 -22 -26 -16 -34
-31 -16 -31 6 0 10 4 10 10 0 11 59 44 67 37 2 -3 13 2 23 11 10 9 32 29 49
44 34 30 39 41 16 32 -8 -4 -15 -1 -15 6 0 6 -5 8 -12 4 -8 -5 -9 -2 -5 10 4
10 7 20 7 22 0 3 13 -4 28 -14 15 -11 44 -23 64 -27 47 -9 42 -30 -21 -92 -25
-25 -40 -42 -33 -38 6 3 12 2 12 -4 0 -5 -8 -12 -17 -14 -10 -3 3 -5 30 -6 43
-1 49 2 67 32 13 21 20 50 20 85 0 28 5 52 10 52 6 0 10 8 10 17 0 13 -3 14
-12 5 -17 -17 -110 -15 -134 2 -26 19 -11 31 34 28 20 -1 53 -4 72 -5 19 -1
36 3 38 8 2 6 10 18 19 27 13 15 13 17 -4 26 -10 5 -45 8 -78 7 -33 -1 -64 1
-70 4 -21 12 -43 10 -56 -5z m57 -19 c5 -13 8 -13 21 0 17 18 29 19 38 5 4 -6
11 -8 16 -5 5 4 9 1 9 -6 0 -8 5 -6 13 5 8 11 19 15 30 10 17 -6 17 -7 1 -26
-14 -14 -25 -17 -48 -12 -17 4 -34 12 -38 18 -6 8 -8 8 -8 0 0 -20 -60 -23
-70 -4 -5 10 -6 20 -3 24 11 11 34 6 39 -9z m-40 -117 c4 -6 -7 -23 -27 -39
-35 -29 -59 -37 -59 -19 0 6 8 10 17 10 9 0 14 3 11 6 -6 5 32 51 44 53 4 1
10 -4 14 -11z m112 -82 c2 -29 -21 -51 -44 -42 -14 6 -13 11 12 36 16 16 29
30 29 30 0 0 2 -11 3 -24z"/>
<path d="M1316 362 c-3 -5 1 -9 9 -9 8 0 15 4 15 9 0 4 -4 8 -9 8 -6 0 -12 -4
-15 -8z"/>
<path d="M1900 559 c0 -4 -21 -12 -46 -18 -38 -10 -50 -9 -68 2 -25 17 -66 6
-66 -18 0 -9 11 -27 24 -42 26 -28 41 -102 30 -158 -3 -18 -2 -40 3 -48 13
-24 160 -137 177 -137 12 0 36 62 42 109 5 43 2 57 -21 96 -31 54 -52 160 -34
181 16 19 4 43 -20 41 -12 -1 -21 -4 -21 -8z m28 -20 c-9 -5 -15 -16 -12 -24
6 -14 -42 -53 -52 -42 -3 3 4 8 15 12 12 3 21 14 20 23 0 11 -3 12 -6 5 -7
-19 -63 -17 -63 2 0 10 10 15 28 16 15 0 36 4 47 9 28 12 44 12 23 -1z m-155
-6 c4 -3 2 -12 -3 -18 -8 -9 -6 -14 5 -19 9 -3 15 0 15 9 0 20 19 19 26 0 4
-8 13 -15 21 -15 8 0 11 -4 8 -10 -19 -30 -95 3 -95 42 0 18 11 24 23 11z
m159 -112 c4 -24 13 -49 19 -57 8 -9 8 -14 1 -14 -6 0 -14 5 -17 10 -8 13 -52
13 -60 0 -4 -6 -11 -8 -16 -5 -18 12 -8 23 27 30 27 5 34 9 26 17 -9 9 -19 8
-39 -2 -16 -8 -31 -16 -35 -18 -5 -2 -8 11 -8 29 l0 31 45 -6 c32 -5 45 -4 45
5 0 6 -8 9 -20 6 -22 -6 -28 8 -7 16 23 10 32 0 39 -42z m-77 32 c-44 -11 -59
-47 -32 -75 24 -24 38 -56 24 -54 -6 0 -13 -3 -14 -8 -1 -9 -23 -26 -34 -26
-3 0 -3 23 1 50 4 28 3 50 -2 50 -4 0 -8 16 -8 35 0 35 0 35 43 34 23 -1 33
-4 22 -6z m114 -119 c2 -2 -4 -4 -15 -4 -15 -1 -14 -4 9 -16 20 -11 27 -22 26
-42 0 -15 -3 -21 -6 -14 -2 6 -11 12 -19 12 -8 0 -11 6 -8 15 5 11 0 15 -17
14 -22 0 -22 -1 -5 -8 18 -7 18 -8 2 -14 -23 -9 -26 -9 -26 3 0 6 -9 20 -20
32 -11 12 -20 26 -20 30 0 8 89 1 99 -8z m-89 -31 c0 -2 -5 -14 -11 -26 -9
-18 -9 -20 2 -9 25 23 33 12 9 -13 -13 -14 -19 -25 -13 -25 6 0 13 7 17 15 3
8 10 15 17 15 6 0 9 -7 5 -15 -3 -8 0 -15 6 -15 7 0 6 -5 -2 -15 -17 -20 -20
-20 -63 21 -36 33 -37 37 -23 53 9 10 14 20 11 23 -3 3 6 3 20 1 14 -3 25 -7
25 -10z m76 -40 c16 -6 16 -7 -2 -14 -17 -7 -17 -8 4 -8 18 -1 22 -6 19 -26
-4 -32 -15 -42 -23 -21 -3 9 -10 13 -15 10 -5 -3 -10 2 -10 10 -1 9 -2 22 -3
29 -4 25 3 30 30 20z m3 -99 c3 -16 1 -17 -13 -5 -19 16 -21 34 -3 29 6 -3 14
-13 16 -24z"/>
<path d="M1305 520 c4 -6 11 -8 16 -5 14 9 11 15 -7 15 -8 0 -12 -5 -9 -10z"/>
<path d="M1170 358 c0 -9 5 -20 10 -23 13 -8 13 5 0 25 -8 13 -10 13 -10 -2z"/>
<path d="M1240 330 c0 -5 5 -10 10 -10 6 0 10 5 10 10 0 6 -4 10 -10 10 -5 0
-10 -4 -10 -10z"/>
</g>
</svg>
